<svg xmlns="http://www.w3.org/2000/svg" xmlns:xlink="http://www.w3.org/1999/xlink" width="500" zoomAndPan="magnify" viewBox="0 0 375 374.999991" height="500" preserveAspectRatio="xMidYMid meet" version="1.0"><defs><clipPath id="8cb16c87be"><path d="M 19 1.035156 L 356 1.035156 L 356 373 L 19 373 Z M 19 1.035156 " clip-rule="nonzero"/></clipPath><clipPath id="5062cad042"><path d="M 19 1.035156 L 351 1.035156 L 351 280 L 19 280 Z M 19 1.035156 " clip-rule="nonzero"/></clipPath></defs><g clip-path="url(#8cb16c87be)"><path fill="#37474f" d="M 177.804688 4.445312 C 183.804688 1.078125 191.195312 1.078125 197.183594 4.445312 C 226.832031 21.078125 316.054688 71.144531 345.710938 87.773438 C 351.710938 91.132812 355.40625 97.351562 355.40625 104.082031 C 355.40625 137.347656 355.40625 237.46875 355.40625 270.730469 C 355.40625 277.460938 351.710938 283.679688 345.710938 287.046875 C 316.0625 303.679688 226.84375 353.742188 197.183594 370.375 C 191.183594 373.742188 183.796875 373.742188 177.804688 370.375 C 148.15625 353.742188 58.9375 303.679688 29.28125 287.046875 C 23.289062 283.679688 19.59375 277.472656 19.59375 270.742188 C 19.59375 237.476562 19.59375 137.355469 19.59375 104.089844 C 19.59375 97.359375 23.289062 91.140625 29.289062 87.773438 C 58.929688 71.144531 148.167969 21.078125 177.804688 4.445312 Z M 177.804688 4.445312 " fill-opacity="1" fill-rule="evenodd"/></g><g clip-path="url(#5062cad042)"><path fill="#546e7a" d="M 22.28125 279.308594 C 19.929688 276.164062 19.59375 273.179688 19.59375 269.160156 C 19.59375 236.089844 19.59375 136.542969 19.59375 103.460938 C 19.59375 96.765625 23.28125 90.585938 29.261719 87.246094 C 58.804688 70.710938 147.722656 20.9375 177.265625 4.390625 C 183.25 1.042969 191.351562 1.117188 197.335938 4.464844 C 226.878906 21 315.496094 70.347656 345.039062 86.882812 C 347.425781 88.226562 349.246094 89.84375 350.871094 91.972656 Z M 22.28125 279.308594 " fill-opacity="1" fill-rule="evenodd"/></g><path fill="#ffffff" d="M 187.5 63.75 C 255.785156 63.75 311.21875 119.160156 311.21875 187.410156 C 311.21875 255.664062 255.785156 311.070312 187.5 311.070312 C 119.214844 311.070312 63.78125 255.664062 63.78125 187.410156 C 63.78125 119.160156 119.214844 63.75 187.5 63.75 Z M 187.5 125.582031 C 221.636719 125.582031 249.359375 153.28125 249.359375 187.410156 C 249.359375 221.53125 221.636719 249.242188 187.5 249.242188 C 153.363281 249.242188 125.640625 221.53125 125.640625 187.410156 C 125.640625 153.28125 153.351562 125.582031 187.5 125.582031 Z M 187.5 125.582031 " fill-opacity="1" fill-rule="evenodd"/><path fill="#455a64" d="M 350.855469 92.058594 C 355.414062 96.324219 355.324219 102.757812 355.324219 107.816406 C 355.324219 141.339844 355.042969 236.679688 355.40625 270.203125 C 355.441406 273.699219 354.28125 277.382812 352.550781 280.15625 L 183.902344 187.410156 Z M 350.855469 92.058594 " fill-opacity="1" fill-rule="evenodd"/><path fill="#ffffff" d="M 275.871094 152.078125 L 284.707031 152.078125 L 284.707031 222.742188 L 275.871094 222.742188 Z M 302.382812 152.078125 L 311.21875 152.078125 L 311.21875 222.742188 L 302.382812 222.742188 Z M 302.382812 152.078125 " fill-opacity="1" fill-rule="evenodd"/><path fill="#ffffff" d="M 258.195312 196.242188 L 328.894531 196.242188 L 328.894531 205.078125 L 258.195312 205.078125 Z M 258.195312 169.746094 L 328.894531 169.746094 L 328.894531 178.578125 L 258.195312 178.578125 Z M 258.195312 169.746094 " fill-opacity="1" fill-rule="evenodd"/></svg>