<svg xmlns="http://www.w3.org/2000/svg" xmlns:xlink="http://www.w3.org/1999/xlink" width="500" zoomAndPan="magnify" viewBox="0 0 375 374.999991" height="500" preserveAspectRatio="xMidYMid meet" version="1.0"><path fill="#4e7896" d="M 154.445312 198.867188 C 154.445312 198.867188 144.5625 204.882812 161.316406 206.601562 C 181.5 209.175781 192.238281 208.75 214.574219 204.453125 C 214.574219 204.453125 220.585938 208.320312 228.746094 211.324219 C 178.496094 232.800781 114.925781 210.035156 154.445312 198.867188 Z M 148 170.949219 C 148 170.949219 137.265625 179.109375 154.015625 180.832031 C 175.917969 182.980469 193.097656 183.40625 222.734375 177.394531 C 222.734375 177.394531 226.597656 181.6875 233.039062 183.835938 C 172.484375 201.875 104.617188 185.554688 148 170.953125 Z M 266.542969 219.910156 C 266.542969 219.910156 273.84375 225.925781 258.382812 230.648438 C 229.605469 239.238281 137.699219 241.816406 111.925781 230.648438 C 102.90625 226.785156 120.085938 221.199219 125.667969 220.339844 C 131.25 219.050781 134.257812 219.050781 134.257812 219.050781 C 124.378906 212.179688 68.542969 233.226562 105.910156 239.238281 C 208.558594 255.992188 293.167969 231.9375 266.542969 219.910156 Z M 159.171875 141.738281 C 159.171875 141.738281 112.355469 152.90625 142.421875 156.773438 C 155.308594 158.492188 180.644531 158.0625 204.269531 156.34375 C 223.59375 154.625 242.921875 151.1875 242.921875 151.1875 C 242.921875 151.1875 236.050781 154.195312 231.328125 157.199219 C 183.652344 169.65625 92.171875 164.074219 118.367188 151.1875 C 140.703125 140.449219 159.167969 141.738281 159.167969 141.738281 Z M 242.921875 188.554688 C 291.023438 163.644531 268.691406 139.59375 253.230469 142.597656 C 249.363281 143.457031 247.644531 144.316406 247.644531 144.316406 C 247.644531 144.316406 248.933594 141.738281 251.941406 140.878906 C 282.433594 130.140625 306.488281 173.09375 242.0625 189.84375 C 242.0625 189.84375 242.492188 189.414062 242.921875 188.554688 Z M 163.894531 256.417969 C 210.277344 259.425781 281.136719 254.703125 282.867188 232.796875 C 282.867188 232.796875 279.433594 241.386719 244.644531 247.828125 C 205.128906 255.132812 156.167969 254.273438 127.398438 249.546875 C 127.398438 249.546875 133.410156 254.703125 163.90625 256.417969 Z M 163.894531 256.417969 " fill-opacity="1" fill-rule="nonzero"/><path fill="#f58219" d="M 213.710938 0 C 213.710938 0 240.339844 27.058594 188.371094 67.863281 C 146.710938 100.9375 178.921875 119.835938 188.371094 141.308594 C 163.890625 119.40625 146.28125 100.078125 158.308594 82.039062 C 175.917969 55.40625 224.457031 42.53125 213.714844 0 Z M 199.976562 123.273438 C 212.433594 137.449219 196.542969 150.332031 196.542969 150.332031 C 196.542969 150.332031 228.324219 134.011719 213.722656 113.824219 C 200.40625 94.496094 190.097656 85.046875 245.933594 52.839844 C 245.933594 52.839844 157.886719 74.746094 199.976562 123.28125 Z M 168.1875 353.917969 L 168.1875 311.824219 C 168.1875 301.085938 162.175781 293.785156 147.144531 293.785156 C 138.554688 293.785156 131.253906 295.929688 124.808594 298.5 L 126.957031 306.230469 C 131.675781 304.515625 137.695312 302.796875 144.136719 302.796875 C 152.296875 302.796875 156.164062 306.230469 156.164062 313.105469 L 156.164062 318.6875 L 151.867188 318.6875 C 131.253906 318.6875 121.804688 326.417969 121.804688 338.875 C 121.804688 349.183594 128.246094 355.195312 139.84375 355.195312 C 147.144531 355.195312 152.726562 351.761719 157.882812 347.464844 L 158.742188 353.90625 L 168.191406 353.90625 Z M 156.164062 340.171875 C 151.867188 344.039062 147.144531 346.1875 142.847656 346.1875 C 137.265625 346.1875 133.828125 342.75 133.828125 336.734375 C 133.828125 330.722656 137.265625 326.429688 151.007812 326.429688 L 156.164062 326.429688 Z M 208.5625 353.917969 L 193.53125 353.917969 L 175.492188 295.074219 L 188.378906 295.074219 L 199.542969 331.152344 L 202.121094 341.890625 C 207.703125 326.425781 212 310.535156 213.71875 295.074219 L 226.601562 295.074219 C 223.164062 314.402344 217.152344 335.445312 208.566406 353.917969 Z M 278.140625 353.917969 L 278.140625 311.824219 C 278.140625 301.085938 272.125 293.785156 257.09375 293.785156 C 248.503906 293.785156 241.203125 295.929688 234.757812 298.5 L 236.476562 306.230469 C 241.632812 304.515625 247.644531 302.796875 254.085938 302.796875 C 262.25 302.796875 266.113281 306.230469 266.113281 313.105469 L 266.113281 318.6875 L 261.820312 318.6875 C 241.203125 318.6875 231.753906 326.417969 231.753906 338.875 C 231.753906 349.183594 237.765625 355.195312 249.363281 355.195312 C 257.09375 355.195312 262.679688 351.761719 267.832031 347.464844 L 268.691406 353.90625 L 278.140625 353.90625 Z M 266.113281 340.171875 C 261.820312 344.039062 257.09375 346.1875 252.796875 346.1875 C 247.214844 346.1875 243.78125 342.75 243.78125 336.734375 C 243.78125 330.722656 247.214844 326.429688 260.960938 326.429688 L 266.113281 326.429688 Z M 108.492188 363.796875 C 105.054688 368.953125 99.902344 372.816406 93.460938 374.964844 L 87.871094 368.097656 C 92.167969 365.519531 96.464844 361.652344 98.179688 358.214844 C 99.898438 355.210938 100.328125 350.914062 100.328125 341.035156 L 100.328125 274.03125 L 113.214844 274.03125 L 113.214844 340.175781 C 113.214844 353.492188 111.925781 358.644531 108.496094 363.800781 Z M 108.492188 363.796875 " fill-opacity="1" fill-rule="nonzero"/></svg>