<svg xmlns="http://www.w3.org/2000/svg" xmlns:xlink="http://www.w3.org/1999/xlink" width="500" zoomAndPan="magnify" viewBox="0 0 375 374.999991" height="500" preserveAspectRatio="xMidYMid meet" version="1.0"><defs><clipPath id="06f2e0887f"><path d="M 38.671875 0 L 336.421875 0 L 336.421875 375 L 38.671875 375 Z M 38.671875 0 " clip-rule="nonzero"/></clipPath><clipPath id="1ce9634b46"><path d="M 38.671875 271 L 336.421875 271 L 336.421875 375 L 38.671875 375 Z M 38.671875 271 " clip-rule="nonzero"/></clipPath><clipPath id="e933f177ed"><path d="M 258 0 L 336.421875 0 L 336.421875 78 L 258 78 Z M 258 0 " clip-rule="nonzero"/></clipPath></defs><g clip-path="url(#06f2e0887f)"><path fill="#d5d0ec" d="M 297.496094 375 L 77.597656 375 C 56.164062 375 38.792969 357.632812 38.792969 336.207031 L 38.792969 38.792969 C 38.792969 17.367188 56.164062 0 77.597656 0 L 258.691406 0 L 336.300781 77.585938 L 336.300781 336.207031 C 336.300781 357.632812 318.929688 375 297.496094 375 " fill-opacity="1" fill-rule="nonzero"/></g><g clip-path="url(#1ce9634b46)"><path fill="#5355af" d="M 297.496094 375 L 77.597656 375 C 56.164062 375 38.792969 357.632812 38.792969 336.207031 L 38.792969 271.550781 L 336.300781 271.550781 L 336.300781 336.207031 C 336.300781 357.632812 318.929688 375 297.496094 375 " fill-opacity="1" fill-rule="nonzero"/></g><g clip-path="url(#e933f177ed)"><path fill="#8484ca" d="M 336.300781 77.585938 L 297.496094 77.585938 C 276.0625 77.585938 258.691406 60.21875 258.691406 38.792969 L 258.691406 0 L 336.300781 77.585938 " fill-opacity="1" fill-rule="nonzero"/></g><path fill="#ffffff" d="M 129.339844 303.878906 L 142.273438 303.878906 C 145.84375 303.878906 148.742188 300.984375 148.742188 297.414062 C 148.742188 293.84375 145.84375 290.949219 142.273438 290.949219 L 129.339844 290.949219 C 118.640625 290.949219 109.9375 299.648438 109.9375 310.34375 C 109.9375 321.039062 118.640625 329.742188 129.339844 329.742188 C 132.902344 329.742188 135.804688 332.644531 135.804688 336.207031 C 135.804688 339.769531 132.902344 342.671875 129.339844 342.671875 L 116.402344 342.671875 C 112.832031 342.671875 109.9375 345.566406 109.9375 349.136719 C 109.9375 352.707031 112.832031 355.601562 116.402344 355.601562 L 129.339844 355.601562 C 140.039062 355.601562 148.742188 346.902344 148.742188 336.207031 C 148.742188 325.511719 140.039062 316.808594 129.339844 316.808594 C 125.773438 316.808594 122.871094 313.910156 122.871094 310.34375 C 122.871094 306.78125 125.773438 303.878906 129.339844 303.878906 " fill-opacity="1" fill-rule="nonzero"/><path fill="#ffffff" d="M 258.691406 342.671875 L 239.289062 342.671875 L 239.289062 297.414062 C 239.289062 293.84375 236.390625 290.949219 232.820312 290.949219 C 229.25 290.949219 226.351562 293.84375 226.351562 297.414062 L 226.351562 349.136719 C 226.351562 352.707031 229.25 355.601562 232.820312 355.601562 L 258.691406 355.601562 C 262.261719 355.601562 265.15625 352.707031 265.15625 349.136719 C 265.15625 345.566406 262.261719 342.671875 258.691406 342.671875 " fill-opacity="1" fill-rule="nonzero"/><path fill="#ffffff" d="M 187.546875 342.671875 C 180.535156 342.671875 174.613281 333.789062 174.613281 323.277344 C 174.613281 312.761719 180.535156 303.878906 187.546875 303.878906 C 194.558594 303.878906 200.480469 312.761719 200.480469 323.277344 C 200.480469 326.417969 199.953125 329.410156 199.019531 332.066406 L 192.121094 325.171875 C 189.59375 322.644531 185.5 322.644531 182.972656 325.171875 C 180.449219 327.695312 180.449219 331.785156 182.972656 334.3125 L 190.71875 342.058594 C 189.699219 342.457031 188.636719 342.671875 187.546875 342.671875 Z M 208.738281 341.78125 C 211.683594 336.535156 213.417969 330.15625 213.417969 323.277344 C 213.417969 305.453125 201.8125 290.949219 187.546875 290.949219 C 173.28125 290.949219 161.675781 305.453125 161.675781 323.277344 C 161.675781 341.101562 173.28125 355.601562 187.546875 355.601562 C 192.121094 355.601562 196.421875 354.105469 200.15625 351.488281 L 202.375 353.710938 C 203.640625 354.972656 205.292969 355.601562 206.949219 355.601562 C 208.605469 355.601562 210.257812 354.972656 211.523438 353.710938 C 214.046875 351.183594 214.046875 347.09375 211.523438 344.566406 L 208.738281 341.78125 " fill-opacity="1" fill-rule="nonzero"/><path fill="#8484ca" d="M 129.339844 90.515625 L 129.339844 206.898438 C 129.339844 214.039062 155.398438 219.828125 187.546875 219.828125 C 219.695312 219.828125 245.753906 214.039062 245.753906 206.898438 L 245.753906 90.515625 L 129.339844 90.515625 " fill-opacity="1" fill-rule="nonzero"/><path fill="#ffffff" d="M 245.753906 90.515625 C 245.753906 97.660156 219.695312 103.449219 187.546875 103.449219 C 155.398438 103.449219 129.339844 97.660156 129.339844 90.515625 C 129.339844 83.375 155.398438 77.585938 187.546875 77.585938 C 219.695312 77.585938 245.753906 83.375 245.753906 90.515625 " fill-opacity="1" fill-rule="nonzero"/><path fill="#5355af" d="M 187.546875 174.570312 C 154.089844 174.570312 133.789062 169.550781 129.339844 166.578125 L 129.339844 180.347656 C 139.292969 184.257812 156.738281 187.5 187.546875 187.5 C 218.351562 187.5 235.800781 184.257812 245.753906 180.347656 L 245.753906 166.578125 C 241.304688 169.550781 221.003906 174.570312 187.546875 174.570312 " fill-opacity="1" fill-rule="nonzero"/><path fill="#5355af" d="M 187.546875 135.777344 C 154.089844 135.777344 133.789062 130.757812 129.339844 127.785156 L 129.339844 141.554688 C 139.292969 145.464844 156.738281 148.707031 187.546875 148.707031 C 218.351562 148.707031 235.800781 145.464844 245.753906 141.554688 L 245.753906 127.785156 C 241.304688 130.757812 221.003906 135.777344 187.546875 135.777344 " fill-opacity="1" fill-rule="nonzero"/></svg>