<svg xmlns="http://www.w3.org/2000/svg" xmlns:xlink="http://www.w3.org/1999/xlink" width="940" zoomAndPan="magnify" viewBox="0 0 705 591.000005" height="788" preserveAspectRatio="xMidYMid meet" version="1.0"><defs><g/><clipPath id="22c46416d6"><path d="M 134 59 L 245.449219 59 L 245.449219 530.703125 L 134 530.703125 Z M 134 59 " clip-rule="nonzero"/></clipPath><clipPath id="d7f4e7a9b8"><path d="M 459.507812 60.789062 L 571 60.789062 L 571 532.492188 L 459.507812 532.492188 Z M 459.507812 60.789062 " clip-rule="nonzero"/></clipPath></defs><g clip-path="url(#22c46416d6)"><path fill="#ffffff" d="M 245.199219 70.410156 L 245.199219 60.601562 C 225.195312 60.226562 202.738281 59.847656 178.109375 59.472656 C 171.976562 59.378906 165.652344 59.28125 159.332031 59.1875 C 156.125 59.1875 152.914062 59.09375 149.613281 59.09375 C 146.875 59.09375 144.140625 59.09375 141.308594 59 C 139.800781 59 138.289062 59 136.683594 59 L 134.230469 59 L 134.230469 61.167969 C 134.230469 66.355469 134.328125 71.542969 134.328125 76.824219 C 134.328125 80.21875 134.328125 83.613281 134.328125 87.007812 C 134.328125 93.890625 134.328125 100.871094 134.328125 107.941406 C 134.230469 164.523438 134.230469 227.894531 134.136719 294.851562 C 134.230469 361.710938 134.230469 425.082031 134.328125 481.757812 C 134.328125 488.832031 134.328125 495.808594 134.328125 502.695312 C 134.328125 506.089844 134.328125 509.484375 134.328125 512.878906 C 134.328125 518.160156 134.230469 523.347656 134.230469 528.53125 L 134.230469 530.703125 L 136.683594 530.703125 C 138.195312 530.703125 139.703125 530.703125 141.308594 530.703125 C 144.046875 530.703125 146.78125 530.703125 149.613281 530.609375 C 152.914062 530.609375 156.125 530.511719 159.332031 530.511719 C 165.75 530.417969 171.976562 530.324219 178.109375 530.230469 C 202.644531 529.851562 225.195312 529.476562 245.199219 529.097656 L 245.199219 519.292969 C 225.195312 518.914062 202.738281 518.535156 178.109375 518.160156 C 171.976562 518.066406 165.652344 517.972656 159.332031 517.875 C 156.125 517.875 152.914062 517.78125 149.613281 517.78125 L 147.441406 517.78125 C 147.441406 517.78125 147.441406 517.6875 147.441406 517.59375 L 147.535156 516.839844 L 147.535156 515.707031 C 147.535156 514.859375 147.535156 514.011719 147.632812 513.160156 C 147.726562 509.765625 147.820312 506.371094 147.820312 502.976562 C 147.914062 496.09375 148.101562 489.113281 148.199219 482.042969 C 149.140625 425.367188 149.519531 361.996094 149.519531 295.039062 C 149.519531 228.085938 149.140625 164.714844 148.199219 108.039062 C 148.101562 100.964844 147.914062 93.988281 147.820312 87.101562 C 147.726562 83.707031 147.632812 80.21875 147.632812 76.917969 C 147.632812 76.070312 147.632812 75.21875 147.535156 74.371094 L 147.535156 73.238281 L 147.441406 72.484375 C 147.441406 72.390625 147.441406 72.296875 147.441406 72.296875 L 149.613281 72.296875 C 152.914062 72.296875 156.125 72.203125 159.332031 72.203125 C 165.75 72.109375 171.976562 72.015625 178.109375 71.917969 C 202.738281 71.164062 225.195312 70.789062 245.199219 70.410156 Z M 245.199219 70.410156 " fill-opacity="1" fill-rule="nonzero"/></g><g fill="#ff9f29" fill-opacity="1"><g transform="translate(203.422082, 488.529517)"><g><path d="M 46.421875 0 L 46.421875 -392.953125 L 163.28125 -392.953125 C 179.476562 -392.773438 195.3125 -390.660156 210.78125 -386.609375 C 226.257812 -382.566406 240.023438 -376.316406 252.078125 -367.859375 C 264.128906 -359.398438 273.753906 -348.601562 280.953125 -335.46875 C 288.148438 -322.332031 291.660156 -306.59375 291.484375 -288.25 C 291.304688 -277.988281 289.640625 -268.628906 286.484375 -260.171875 C 283.335938 -251.710938 279.019531 -244.109375 273.53125 -237.359375 C 268.039062 -230.617188 261.609375 -224.726562 254.234375 -219.6875 C 246.859375 -214.65625 239.03125 -210.335938 230.75 -206.734375 C 241.1875 -203.671875 250.769531 -199.304688 259.5 -193.640625 C 268.226562 -187.972656 275.738281 -181.132812 282.03125 -173.125 C 288.332031 -165.125 293.234375 -156.082031 296.734375 -146 C 300.242188 -135.925781 302 -125.046875 302 -113.359375 C 302.1875 -95.003906 298.679688 -78.804688 291.484375 -64.765625 C 284.285156 -50.734375 274.65625 -38.992188 262.59375 -29.546875 C 250.539062 -20.109375 236.644531 -12.867188 220.90625 -7.828125 C 205.164062 -2.785156 188.925781 -0.175781 172.1875 0 Z M 96.625 -183.796875 L 96.625 -42.375 L 173.546875 -42.375 C 183.972656 -42.550781 193.863281 -44.300781 203.21875 -47.625 C 212.582031 -50.957031 220.863281 -55.59375 228.0625 -61.53125 C 235.257812 -67.46875 240.96875 -74.753906 245.1875 -83.390625 C 249.414062 -92.023438 251.53125 -101.832031 251.53125 -112.8125 C 251.71875 -123.96875 249.875 -133.863281 246 -142.5 C 242.132812 -151.132812 236.78125 -158.46875 229.9375 -164.5 C 223.101562 -170.53125 215.097656 -175.160156 205.921875 -178.390625 C 196.742188 -181.628906 186.847656 -183.429688 176.234375 -183.796875 Z M 96.625 -225.359375 L 166.25 -225.359375 C 175.601562 -225.535156 184.78125 -227.019531 193.78125 -229.8125 C 202.78125 -232.601562 210.785156 -236.648438 217.796875 -241.953125 C 224.816406 -247.265625 230.484375 -253.785156 234.796875 -261.515625 C 239.117188 -269.253906 241.28125 -278.253906 241.28125 -288.515625 C 241.28125 -299.484375 239.164062 -308.835938 234.9375 -316.578125 C 230.707031 -324.316406 225.039062 -330.660156 217.9375 -335.609375 C 210.832031 -340.554688 202.644531 -344.195312 193.375 -346.53125 C 184.113281 -348.875 174.625 -350.132812 164.90625 -350.3125 L 96.625 -350.3125 Z M 96.625 -225.359375 "/></g></g></g><g clip-path="url(#d7f4e7a9b8)"><path fill="#ffffff" d="M 459.757812 521.082031 L 459.757812 530.890625 C 479.761719 531.265625 502.21875 531.644531 526.847656 532.019531 C 532.980469 532.113281 539.304688 532.210938 545.625 532.304688 C 548.832031 532.304688 552.042969 532.398438 555.34375 532.398438 C 558.082031 532.398438 560.816406 532.398438 563.648438 532.492188 C 565.160156 532.492188 566.667969 532.492188 568.273438 532.492188 L 570.726562 532.492188 L 570.726562 530.324219 C 570.726562 525.136719 570.632812 519.949219 570.632812 514.667969 C 570.632812 511.273438 570.632812 507.878906 570.632812 504.484375 C 570.632812 497.601562 570.632812 490.621094 570.632812 483.550781 C 570.726562 426.96875 570.726562 363.597656 570.820312 296.640625 C 570.726562 229.78125 570.726562 166.410156 570.632812 109.734375 C 570.632812 102.660156 570.632812 95.683594 570.632812 88.796875 C 570.632812 85.402344 570.632812 82.007812 570.632812 78.613281 C 570.632812 73.332031 570.726562 68.144531 570.726562 62.960938 L 570.726562 60.789062 L 568.273438 60.789062 C 566.761719 60.789062 565.253906 60.789062 563.648438 60.789062 C 560.914062 60.789062 558.175781 60.789062 555.34375 60.882812 C 552.042969 60.882812 548.832031 60.980469 545.625 60.980469 C 539.210938 61.074219 532.980469 61.167969 526.847656 61.261719 C 502.3125 61.640625 479.761719 62.015625 459.757812 62.394531 L 459.757812 72.199219 C 479.761719 72.578125 502.21875 72.957031 526.847656 73.332031 C 532.980469 73.425781 539.304688 73.519531 545.625 73.617188 C 548.832031 73.617188 552.042969 73.710938 555.34375 73.710938 L 557.515625 73.710938 C 557.515625 73.710938 557.515625 73.804688 557.515625 73.898438 L 557.421875 74.652344 L 557.421875 75.785156 C 557.421875 76.632812 557.421875 77.480469 557.328125 78.332031 C 557.230469 81.726562 557.136719 85.121094 557.136719 88.515625 C 557.042969 95.398438 556.855469 102.378906 556.761719 109.449219 C 555.816406 166.125 555.4375 229.496094 555.4375 296.453125 C 555.4375 363.40625 555.816406 426.777344 556.761719 483.453125 C 556.855469 490.527344 557.042969 497.503906 557.136719 504.390625 C 557.230469 507.785156 557.328125 511.273438 557.328125 514.574219 C 557.328125 515.421875 557.328125 516.273438 557.421875 517.121094 L 557.421875 518.253906 L 557.515625 519.007812 C 557.515625 519.101562 557.515625 519.195312 557.515625 519.195312 L 555.34375 519.195312 C 552.042969 519.195312 548.832031 519.289062 545.625 519.289062 C 539.210938 519.382812 532.980469 519.476562 526.847656 519.574219 C 502.21875 520.328125 479.761719 520.703125 459.757812 521.082031 Z M 459.757812 521.082031 " fill-opacity="1" fill-rule="nonzero"/></g></svg>