<svg xmlns="http://www.w3.org/2000/svg" xmlns:xlink="http://www.w3.org/1999/xlink" width="940" zoomAndPan="magnify" viewBox="0 0 705 591.000005" height="788" preserveAspectRatio="xMidYMid meet" version="1.0"><defs><g/><clipPath id="3b87325eee"><path d="M 42.023438 132.277344 L 119 132.277344 L 119 457.976562 L 42.023438 457.976562 Z M 42.023438 132.277344 " clip-rule="nonzero"/></clipPath><clipPath id="98eaaefd2a"><path d="M 586.152344 131.882812 L 663.273438 131.882812 L 663.273438 458.328125 L 586.152344 458.328125 Z M 586.152344 131.882812 " clip-rule="nonzero"/></clipPath></defs><g clip-path="url(#3b87325eee)"><path fill="#ffffff" d="M 118.972656 140.15625 L 118.972656 133.382812 C 105.144531 133.125 89.617188 132.863281 72.59375 132.601562 C 68.351562 132.539062 63.980469 132.472656 59.613281 132.40625 C 57.394531 132.40625 55.175781 132.34375 52.890625 132.34375 C 51 132.34375 49.109375 132.34375 47.152344 132.277344 C 46.109375 132.277344 45.066406 132.277344 43.957031 132.277344 L 42.257812 132.277344 L 42.257812 133.773438 C 42.257812 137.355469 42.324219 140.9375 42.324219 144.582031 C 42.324219 146.925781 42.324219 149.273438 42.324219 151.617188 C 42.324219 156.367188 42.324219 161.1875 42.324219 166.070312 C 42.257812 205.140625 42.257812 248.894531 42.195312 295.125 C 42.257812 341.292969 42.257812 385.046875 42.324219 424.183594 C 42.324219 429.066406 42.324219 433.882812 42.324219 438.636719 C 42.324219 440.980469 42.324219 443.324219 42.324219 445.667969 C 42.324219 449.316406 42.257812 452.898438 42.257812 456.476562 L 42.257812 457.976562 L 43.957031 457.976562 C 45 457.976562 46.042969 457.976562 47.152344 457.976562 C 49.042969 457.976562 50.933594 457.976562 52.890625 457.910156 C 55.175781 457.910156 57.394531 457.84375 59.613281 457.84375 C 64.046875 457.78125 68.351562 457.714844 72.59375 457.648438 C 89.554688 457.390625 105.144531 457.128906 118.972656 456.867188 L 118.972656 450.097656 C 105.144531 449.835938 89.617188 449.574219 72.59375 449.316406 C 68.351562 449.25 63.980469 449.183594 59.613281 449.121094 C 57.394531 449.121094 55.175781 449.054688 52.890625 449.054688 L 51.390625 449.054688 C 51.390625 449.054688 51.390625 448.988281 51.390625 448.925781 L 51.457031 448.402344 L 51.457031 447.621094 C 51.457031 447.035156 51.457031 446.449219 51.523438 445.863281 C 51.589844 443.519531 51.652344 441.175781 51.652344 438.832031 C 51.71875 434.078125 51.847656 429.261719 51.914062 424.378906 C 52.566406 385.242188 52.828125 341.488281 52.828125 295.257812 C 52.828125 249.027344 52.566406 205.269531 51.914062 166.136719 C 51.847656 161.253906 51.71875 156.433594 51.652344 151.679688 C 51.585938 149.335938 51.523438 146.925781 51.523438 144.648438 C 51.523438 144.0625 51.523438 143.476562 51.457031 142.890625 L 51.457031 142.109375 L 51.390625 141.589844 C 51.390625 141.523438 51.390625 141.457031 51.390625 141.457031 L 52.890625 141.457031 C 55.175781 141.457031 57.394531 141.394531 59.613281 141.394531 C 64.046875 141.328125 68.351562 141.261719 72.59375 141.199219 C 89.617188 140.675781 105.144531 140.417969 118.972656 140.15625 Z M 118.972656 140.15625 " fill-opacity="1" fill-rule="nonzero"/></g><g clip-path="url(#98eaaefd2a)"><path fill="#ffffff" d="M 586.320312 450.433594 L 586.320312 457.21875 C 600.152344 457.480469 615.675781 457.742188 632.703125 458.003906 C 636.945312 458.070312 641.316406 458.132812 645.6875 458.199219 C 647.902344 458.199219 650.121094 458.265625 652.40625 458.265625 C 654.296875 458.265625 656.1875 458.265625 658.144531 458.328125 C 659.191406 458.328125 660.234375 458.328125 661.34375 458.328125 L 663.039062 458.328125 L 663.039062 456.828125 C 663.039062 453.238281 662.972656 449.648438 662.972656 445.996094 C 662.972656 443.644531 662.972656 441.296875 662.972656 438.945312 C 662.972656 434.183594 662.972656 429.351562 662.972656 424.457031 C 663.039062 385.300781 663.039062 341.441406 663.105469 295.105469 C 663.039062 248.835938 663.039062 204.976562 662.972656 165.753906 C 662.972656 160.859375 662.972656 156.03125 662.972656 151.265625 C 662.972656 148.914062 662.972656 146.566406 662.972656 144.21875 C 662.972656 140.5625 663.039062 136.972656 663.039062 133.382812 L 663.039062 131.882812 L 661.34375 131.882812 C 660.300781 131.882812 659.253906 131.882812 658.144531 131.882812 C 656.253906 131.882812 654.363281 131.882812 652.40625 131.949219 C 650.121094 131.949219 647.902344 132.011719 645.6875 132.011719 C 641.25 132.078125 636.945312 132.144531 632.703125 132.207031 C 615.742188 132.46875 600.152344 132.730469 586.320312 132.992188 L 586.320312 139.777344 C 600.152344 140.039062 615.675781 140.300781 632.703125 140.5625 C 636.945312 140.628906 641.316406 140.691406 645.6875 140.757812 C 647.902344 140.757812 650.121094 140.824219 652.40625 140.824219 L 653.90625 140.824219 C 653.90625 140.824219 653.90625 140.886719 653.90625 140.953125 L 653.839844 141.476562 L 653.839844 142.257812 C 653.839844 142.847656 653.839844 143.433594 653.777344 144.019531 C 653.710938 146.371094 653.644531 148.71875 653.644531 151.070312 C 653.578125 155.832031 653.449219 160.664062 653.382812 165.558594 C 652.730469 204.78125 652.472656 248.636719 652.472656 294.976562 C 652.472656 341.3125 652.730469 385.167969 653.382812 424.394531 C 653.449219 429.289062 653.578125 434.117188 653.644531 438.882812 C 653.710938 441.230469 653.777344 443.644531 653.777344 445.929688 C 653.777344 446.515625 653.777344 447.105469 653.839844 447.691406 L 653.839844 448.476562 L 653.90625 448.996094 C 653.90625 449.0625 653.90625 449.128906 653.90625 449.128906 L 652.40625 449.128906 C 650.121094 449.128906 647.902344 449.191406 645.6875 449.191406 C 641.25 449.257812 636.945312 449.324219 632.703125 449.390625 C 615.675781 449.910156 600.152344 450.171875 586.320312 450.433594 Z M 586.320312 450.433594 " fill-opacity="1" fill-rule="nonzero"/></g><g fill="#ff9f29" fill-opacity="1"><g transform="translate(72.456481, 308.784667)"><g><path d="M 82.875 -40.1875 C 82.875 -34.3125 82.160156 -28.828125 80.734375 -23.734375 C 79.316406 -18.648438 77.238281 -14.234375 74.5 -10.484375 C 71.769531 -6.734375 68.394531 -3.796875 64.375 -1.671875 C 60.351562 0.453125 55.734375 1.515625 50.515625 1.515625 C 45.242188 1.515625 40.671875 0.578125 36.796875 -1.296875 C 32.921875 -3.171875 29.617188 -5.851562 26.890625 -9.34375 L 26.203125 0 L 13.296875 0 L 13.296875 -116.671875 L 27.34375 -116.671875 L 27.34375 -73.375 C 30.03125 -76.71875 33.269531 -79.273438 37.0625 -81.046875 C 40.863281 -82.816406 45.296875 -83.703125 50.359375 -83.703125 C 55.628906 -83.703125 60.285156 -82.664062 64.328125 -80.59375 C 68.378906 -78.519531 71.769531 -75.632812 74.5 -71.9375 C 77.238281 -68.238281 79.316406 -63.816406 80.734375 -58.671875 C 82.160156 -53.535156 82.875 -47.90625 82.875 -41.78125 Z M 68.8125 -41.78125 C 68.8125 -45.78125 68.421875 -49.585938 67.640625 -53.203125 C 66.859375 -56.828125 65.601562 -60.019531 63.875 -62.78125 C 62.15625 -65.539062 59.898438 -67.726562 57.109375 -69.34375 C 54.328125 -70.96875 50.910156 -71.78125 46.859375 -71.78125 C 44.429688 -71.78125 42.203125 -71.460938 40.171875 -70.828125 C 38.148438 -70.191406 36.34375 -69.304688 34.75 -68.171875 C 33.15625 -67.035156 31.738281 -65.691406 30.5 -64.140625 C 29.257812 -62.597656 28.207031 -60.914062 27.34375 -59.09375 L 27.34375 -23.171875 C 28.257812 -21.347656 29.335938 -19.660156 30.578125 -18.109375 C 31.816406 -16.566406 33.242188 -15.210938 34.859375 -14.046875 C 36.484375 -12.890625 38.304688 -11.992188 40.328125 -11.359375 C 42.359375 -10.722656 44.585938 -10.40625 47.015625 -10.40625 C 50.867188 -10.40625 54.175781 -11.203125 56.9375 -12.796875 C 59.695312 -14.390625 61.945312 -16.550781 63.6875 -19.28125 C 65.4375 -22.019531 66.726562 -25.1875 67.5625 -28.78125 C 68.394531 -32.382812 68.8125 -36.1875 68.8125 -40.1875 Z M 68.8125 -41.78125 "/></g></g></g><g fill="#ffffff" fill-opacity="1"><g transform="translate(165.795641, 308.784667)"><g><path d="M 15.421875 -82.1875 L 57.421875 -82.1875 L 57.421875 -12.15625 L 84.234375 -12.15625 L 84.234375 0 L 15.421875 0 L 15.421875 -12.15625 L 43.375 -12.15625 L 43.375 -69.953125 L 15.421875 -69.953125 Z M 41.546875 -103.765625 C 41.546875 -106.085938 42.242188 -108.046875 43.640625 -109.640625 C 45.035156 -111.234375 47.148438 -112.03125 49.984375 -112.03125 C 52.765625 -112.03125 54.863281 -111.234375 56.28125 -109.640625 C 57.695312 -108.046875 58.40625 -106.085938 58.40625 -103.765625 C 58.40625 -101.484375 57.695312 -99.582031 56.28125 -98.0625 C 54.863281 -96.539062 52.765625 -95.78125 49.984375 -95.78125 C 47.148438 -95.78125 45.035156 -96.539062 43.640625 -98.0625 C 42.242188 -99.582031 41.546875 -101.484375 41.546875 -103.765625 Z M 41.546875 -103.765625 "/></g></g></g><g fill="#ffffff" fill-opacity="1"><g transform="translate(259.141433, 308.784667)"><g><path d="M 67.828125 -21.796875 C 67.828125 -23.472656 67.5 -24.976562 66.84375 -26.3125 C 66.1875 -27.65625 65.070312 -28.882812 63.5 -30 C 61.925781 -31.113281 59.847656 -32.140625 57.265625 -33.078125 C 54.691406 -34.015625 51.476562 -34.863281 47.625 -35.625 C 42.914062 -36.582031 38.625 -37.742188 34.75 -39.109375 C 30.875 -40.484375 27.554688 -42.117188 24.796875 -44.015625 C 22.035156 -45.910156 19.894531 -48.132812 18.375 -50.6875 C 16.863281 -53.25 16.109375 -56.226562 16.109375 -59.625 C 16.109375 -62.96875 16.890625 -66.09375 18.453125 -69 C 20.023438 -71.914062 22.226562 -74.460938 25.0625 -76.640625 C 27.894531 -78.816406 31.273438 -80.535156 35.203125 -81.796875 C 39.128906 -83.066406 43.445312 -83.703125 48.15625 -83.703125 C 53.21875 -83.703125 57.773438 -83.039062 61.828125 -81.71875 C 65.878906 -80.40625 69.320312 -78.582031 72.15625 -76.25 C 74.988281 -73.925781 77.175781 -71.207031 78.71875 -68.09375 C 80.269531 -64.976562 81.046875 -61.625 81.046875 -58.03125 L 67 -58.03125 C 67 -59.800781 66.539062 -61.535156 65.625 -63.234375 C 64.71875 -64.929688 63.453125 -66.4375 61.828125 -67.75 C 60.210938 -69.070312 58.25 -70.132812 55.9375 -70.9375 C 53.632812 -71.75 51.039062 -72.15625 48.15625 -72.15625 C 45.164062 -72.15625 42.546875 -71.828125 40.296875 -71.171875 C 38.046875 -70.515625 36.171875 -69.628906 34.671875 -68.515625 C 33.179688 -67.398438 32.054688 -66.109375 31.296875 -64.640625 C 30.535156 -63.171875 30.15625 -61.648438 30.15625 -60.078125 C 30.15625 -58.460938 30.457031 -57.019531 31.0625 -55.75 C 31.675781 -54.488281 32.726562 -53.347656 34.21875 -52.328125 C 35.707031 -51.316406 37.707031 -50.40625 40.21875 -49.59375 C 42.726562 -48.789062 45.90625 -48.007812 49.75 -47.25 C 54.8125 -46.1875 59.34375 -44.957031 63.34375 -43.5625 C 67.34375 -42.164062 70.707031 -40.492188 73.4375 -38.546875 C 76.175781 -36.597656 78.269531 -34.332031 79.71875 -31.75 C 81.164062 -29.164062 81.890625 -26.175781 81.890625 -22.78125 C 81.890625 -19.132812 81.066406 -15.816406 79.421875 -12.828125 C 77.773438 -9.847656 75.484375 -7.289062 72.546875 -5.15625 C 69.609375 -3.03125 66.085938 -1.382812 61.984375 -0.21875 C 57.878906 0.9375 53.394531 1.515625 48.53125 1.515625 C 42.96875 1.515625 38.003906 0.769531 33.640625 -0.71875 C 29.285156 -2.21875 25.601562 -4.191406 22.59375 -6.640625 C 19.582031 -9.097656 17.28125 -11.945312 15.6875 -15.1875 C 14.09375 -18.425781 13.296875 -21.796875 13.296875 -25.296875 L 27.34375 -25.296875 C 27.550781 -22.410156 28.320312 -19.976562 29.65625 -18 C 31 -16.03125 32.671875 -14.4375 34.671875 -13.21875 C 36.671875 -12 38.882812 -11.132812 41.3125 -10.625 C 43.75 -10.125 46.15625 -9.875 48.53125 -9.875 C 54.457031 -9.875 59.140625 -10.960938 62.578125 -13.140625 C 66.023438 -15.316406 67.773438 -18.203125 67.828125 -21.796875 Z M 67.828125 -21.796875 "/></g></g></g><g fill="#ffffff" fill-opacity="1"><g transform="translate(352.487225, 308.784667)"><g><path d="M 27.265625 -69.953125 C 30.203125 -74.253906 33.820312 -77.609375 38.125 -80.015625 C 42.4375 -82.421875 47.273438 -83.648438 52.640625 -83.703125 C 56.941406 -83.703125 60.851562 -83.082031 64.375 -81.84375 C 67.894531 -80.601562 70.894531 -78.664062 73.375 -76.03125 C 75.851562 -73.394531 77.765625 -70.0625 79.109375 -66.03125 C 80.453125 -62.007812 81.125 -57.242188 81.125 -51.734375 L 81.125 0 L 67.078125 0 L 67.078125 -51.875 C 67.078125 -58.613281 65.46875 -63.628906 62.25 -66.921875 C 59.03125 -70.210938 54.4375 -71.832031 48.46875 -71.78125 C 43.957031 -71.78125 39.863281 -70.675781 36.1875 -68.46875 C 32.519531 -66.269531 29.546875 -63.347656 27.265625 -59.703125 L 27.265625 0 L 13.21875 0 L 13.21875 -116.671875 L 27.265625 -116.671875 Z M 27.265625 -69.953125 "/></g></g></g><g fill="#ffffff" fill-opacity="1"><g transform="translate(445.833017, 308.784667)"><g><path d="M 9.265625 -41.859375 C 9.265625 -47.773438 10.125 -53.273438 11.84375 -58.359375 C 13.570312 -63.453125 16.039062 -67.875 19.25 -71.625 C 22.46875 -75.375 26.378906 -78.320312 30.984375 -80.46875 C 35.597656 -82.625 40.789062 -83.703125 46.5625 -83.703125 C 52.382812 -83.703125 57.613281 -82.625 62.25 -80.46875 C 66.882812 -78.320312 70.804688 -75.375 74.015625 -71.625 C 77.234375 -67.875 79.703125 -63.453125 81.421875 -58.359375 C 83.148438 -53.273438 84.015625 -47.773438 84.015625 -41.859375 L 84.015625 -40.1875 C 84.015625 -34.257812 83.148438 -28.765625 81.421875 -23.703125 C 79.703125 -18.640625 77.234375 -14.234375 74.015625 -10.484375 C 70.804688 -6.734375 66.894531 -3.796875 62.28125 -1.671875 C 57.675781 0.453125 52.488281 1.515625 46.71875 1.515625 C 40.894531 1.515625 35.664062 0.453125 31.03125 -1.671875 C 26.394531 -3.796875 22.46875 -6.734375 19.25 -10.484375 C 16.039062 -14.234375 13.570312 -18.640625 11.84375 -23.703125 C 10.125 -28.765625 9.265625 -34.257812 9.265625 -40.1875 Z M 23.3125 -40.1875 C 23.3125 -36.132812 23.789062 -32.269531 24.75 -28.59375 C 25.71875 -24.925781 27.175781 -21.695312 29.125 -18.90625 C 31.070312 -16.125 33.515625 -13.921875 36.453125 -12.296875 C 39.390625 -10.679688 42.8125 -9.875 46.71875 -9.875 C 50.5625 -9.875 53.9375 -10.679688 56.84375 -12.296875 C 59.757812 -13.921875 62.191406 -16.125 64.140625 -18.90625 C 66.097656 -21.695312 67.554688 -24.925781 68.515625 -28.59375 C 69.472656 -32.269531 69.953125 -36.132812 69.953125 -40.1875 L 69.953125 -41.859375 C 69.953125 -45.859375 69.457031 -49.691406 68.46875 -53.359375 C 67.488281 -57.035156 66.019531 -60.265625 64.0625 -63.046875 C 62.113281 -65.828125 59.679688 -68.039062 56.765625 -69.6875 C 53.859375 -71.332031 50.457031 -72.15625 46.5625 -72.15625 C 42.664062 -72.15625 39.269531 -71.332031 36.375 -69.6875 C 33.488281 -68.039062 31.070312 -65.828125 29.125 -63.046875 C 27.175781 -60.265625 25.71875 -57.035156 24.75 -53.359375 C 23.789062 -49.691406 23.3125 -45.859375 23.3125 -41.859375 Z M 23.3125 -40.1875 "/></g></g></g><g fill="#ffffff" fill-opacity="1"><g transform="translate(539.178809, 308.784667)"><g><path d="M 25.671875 -29.78125 L 27.34375 -18 L 29.390625 -29.78125 L 42.53125 -82.1875 L 51.578125 -82.1875 L 64.640625 -29.78125 L 66.84375 -16.859375 L 68.890625 -29.78125 L 78.015625 -82.1875 L 90.46875 -82.1875 L 73 0 L 61.90625 0 L 49.0625 -50.359375 L 46.9375 -63.125 L 44.890625 -50.359375 L 32.203125 0 L 21.109375 0 L 3.640625 -82.1875 L 16.109375 -82.1875 Z M 25.671875 -29.78125 "/></g></g></g><g fill="#ff9f29" fill-opacity="1"><g transform="translate(81.676747, 412.838367)"><g><path d="M 53.546875 -26.46875 C 53.546875 -22.976562 53.117188 -19.570312 52.265625 -16.25 C 51.421875 -12.9375 50.125 -10.003906 48.375 -7.453125 C 46.625 -4.910156 44.414062 -2.863281 41.75 -1.3125 C 39.09375 0.226562 35.929688 1 32.265625 1 C 28.804688 1 25.664062 0.289062 22.84375 -1.125 C 20.03125 -2.539062 17.675781 -4.582031 15.78125 -7.25 L 15.53125 0 L 9.9375 0 L 9.9375 -76.71875 L 15.9375 -76.71875 L 15.9375 -46.5 C 17.769531 -49.195312 20.054688 -51.296875 22.796875 -52.796875 C 25.546875 -54.296875 28.671875 -55.046875 32.171875 -55.046875 C 35.867188 -55.046875 39.0625 -54.285156 41.75 -52.765625 C 44.445312 -51.253906 46.660156 -49.222656 48.390625 -46.671875 C 50.128906 -44.128906 51.421875 -41.203125 52.265625 -37.890625 C 53.117188 -34.578125 53.546875 -31.117188 53.546875 -27.515625 Z M 47.5 -27.515625 C 47.5 -30.210938 47.210938 -32.894531 46.640625 -35.5625 C 46.078125 -38.226562 45.160156 -40.617188 43.890625 -42.734375 C 42.628906 -44.847656 40.941406 -46.5625 38.828125 -47.875 C 36.710938 -49.1875 34.109375 -49.84375 31.015625 -49.84375 C 29.222656 -49.84375 27.539062 -49.578125 25.96875 -49.046875 C 24.40625 -48.515625 22.984375 -47.78125 21.703125 -46.84375 C 20.421875 -45.914062 19.296875 -44.796875 18.328125 -43.484375 C 17.367188 -42.171875 16.570312 -40.742188 15.9375 -39.203125 L 15.9375 -13.984375 C 16.601562 -12.515625 17.441406 -11.171875 18.453125 -9.953125 C 19.472656 -8.742188 20.640625 -7.710938 21.953125 -6.859375 C 23.265625 -6.015625 24.695312 -5.359375 26.25 -4.890625 C 27.800781 -4.429688 29.425781 -4.203125 31.125 -4.203125 C 34.144531 -4.203125 36.695312 -4.847656 38.78125 -6.140625 C 40.863281 -7.441406 42.546875 -9.148438 43.828125 -11.265625 C 45.109375 -13.378906 46.039062 -15.765625 46.625 -18.421875 C 47.207031 -21.085938 47.5 -23.769531 47.5 -26.46875 Z M 47.5 -27.515625 "/></g></g></g><g fill="#ffffff" fill-opacity="1"><g transform="translate(143.046924, 412.838367)"><g><path d="M 15.640625 -43.609375 C 17.535156 -47.066406 20.0625 -49.828125 23.21875 -51.890625 C 26.382812 -53.960938 30 -55.015625 34.0625 -55.046875 C 37.03125 -55.046875 39.65625 -54.585938 41.9375 -53.671875 C 44.21875 -52.753906 46.128906 -51.421875 47.671875 -49.671875 C 49.222656 -47.921875 50.40625 -45.769531 51.21875 -43.21875 C 52.039062 -40.675781 52.453125 -37.773438 52.453125 -34.515625 L 52.453125 0 L 46.453125 0 L 46.453125 -34.515625 C 46.453125 -36.910156 46.164062 -39.054688 45.59375 -40.953125 C 45.03125 -42.859375 44.175781 -44.46875 43.03125 -45.78125 C 41.882812 -47.09375 40.441406 -48.097656 38.703125 -48.796875 C 36.972656 -49.492188 34.941406 -49.84375 32.609375 -49.84375 C 30.710938 -49.84375 28.898438 -49.539062 27.171875 -48.9375 C 25.441406 -48.34375 23.84375 -47.515625 22.375 -46.453125 C 20.90625 -45.390625 19.597656 -44.132812 18.453125 -42.6875 C 17.304688 -41.238281 16.367188 -39.644531 15.640625 -37.90625 L 15.640625 0 L 9.640625 0 L 9.640625 -76.71875 L 15.640625 -76.71875 Z M 15.640625 -43.609375 "/></g></g></g><g fill="#ffffff" fill-opacity="1"><g transform="translate(204.427091, 412.838367)"><g><path d="M 46.796875 0 C 46.429688 -1.09375 46.148438 -2.3125 45.953125 -3.65625 C 45.753906 -5.007812 45.617188 -6.390625 45.546875 -7.796875 C 44.515625 -6.523438 43.316406 -5.359375 41.953125 -4.296875 C 40.585938 -3.234375 39.097656 -2.304688 37.484375 -1.515625 C 35.867188 -0.734375 34.128906 -0.117188 32.265625 0.328125 C 30.398438 0.773438 28.453125 1 26.421875 1 C 23.890625 1 21.53125 0.632812 19.34375 -0.09375 C 17.164062 -0.832031 15.269531 -1.863281 13.65625 -3.1875 C 12.039062 -4.519531 10.773438 -6.128906 9.859375 -8.015625 C 8.941406 -9.898438 8.484375 -12.003906 8.484375 -14.328125 C 8.484375 -17.429688 9.164062 -20.0625 10.53125 -22.21875 C 11.90625 -24.382812 13.753906 -26.140625 16.078125 -27.484375 C 18.410156 -28.835938 21.109375 -29.832031 24.171875 -30.46875 C 27.234375 -31.101562 30.445312 -31.421875 33.8125 -31.421875 L 45.5 -31.421875 L 45.5 -37.5625 C 45.46875 -39.59375 45.066406 -41.378906 44.296875 -42.921875 C 43.535156 -44.472656 42.492188 -45.773438 41.171875 -46.828125 C 39.859375 -47.878906 38.296875 -48.671875 36.484375 -49.203125 C 34.671875 -49.734375 32.695312 -50 30.5625 -50 C 28.632812 -50 26.796875 -49.75 25.046875 -49.25 C 23.296875 -48.75 21.742188 -48.03125 20.390625 -47.09375 C 19.046875 -46.164062 17.957031 -45.023438 17.125 -43.671875 C 16.300781 -42.328125 15.851562 -40.804688 15.78125 -39.109375 L 9.796875 -39.15625 C 9.890625 -41.457031 10.492188 -43.570312 11.609375 -45.5 C 12.722656 -47.4375 14.226562 -49.109375 16.125 -50.515625 C 18.03125 -51.929688 20.238281 -53.039062 22.75 -53.84375 C 25.257812 -54.644531 27.945312 -55.046875 30.8125 -55.046875 C 33.675781 -55.046875 36.363281 -54.675781 38.875 -53.9375 C 41.394531 -53.207031 43.578125 -52.109375 45.421875 -50.640625 C 47.273438 -49.179688 48.742188 -47.351562 49.828125 -45.15625 C 50.910156 -42.957031 51.46875 -40.394531 51.5 -37.46875 L 51.5 -11.28125 C 51.5 -9.488281 51.65625 -7.675781 51.96875 -5.84375 C 52.289062 -4.007812 52.679688 -2.257812 53.140625 -0.59375 L 53.203125 0 Z M 27.078125 -4.296875 C 29.171875 -4.265625 31.175781 -4.515625 33.09375 -5.046875 C 35.007812 -5.578125 36.765625 -6.316406 38.359375 -7.265625 C 39.960938 -8.210938 41.378906 -9.34375 42.609375 -10.65625 C 43.835938 -11.976562 44.800781 -13.421875 45.5 -14.984375 L 45.5 -26.828125 L 34.609375 -26.828125 C 31.984375 -26.828125 29.453125 -26.625 27.015625 -26.21875 C 24.585938 -25.820312 22.441406 -25.164062 20.578125 -24.25 C 18.710938 -23.332031 17.222656 -22.109375 16.109375 -20.578125 C 14.992188 -19.046875 14.4375 -17.128906 14.4375 -14.828125 C 14.4375 -13.203125 14.769531 -11.738281 15.4375 -10.4375 C 16.101562 -9.132812 17 -8.023438 18.125 -7.109375 C 19.257812 -6.203125 20.59375 -5.503906 22.125 -5.015625 C 23.65625 -4.535156 25.304688 -4.296875 27.078125 -4.296875 Z M 27.078125 -4.296875 "/></g></g></g><g fill="#ffffff" fill-opacity="1"><g transform="translate(265.807257, 412.838367)"><g><path d="M 29.5625 -67.875 L 29.5625 -54.046875 L 49.59375 -54.046875 L 49.59375 -49.15625 L 29.5625 -49.15625 L 29.5625 -15.140625 C 29.601562 -13.035156 29.929688 -11.289062 30.546875 -9.90625 C 31.160156 -8.53125 31.988281 -7.414062 33.03125 -6.5625 C 34.082031 -5.71875 35.316406 -5.113281 36.734375 -4.75 C 38.148438 -4.382812 39.691406 -4.203125 41.359375 -4.203125 C 43.023438 -4.203125 44.726562 -4.316406 46.46875 -4.546875 C 48.21875 -4.773438 49.710938 -5.007812 50.953125 -5.25 L 51.84375 -0.703125 C 50.414062 -0.128906 48.664062 0.296875 46.59375 0.578125 C 44.53125 0.859375 42.4375 1 40.3125 1 C 37.914062 1 35.703125 0.707031 33.671875 0.125 C 31.640625 -0.457031 29.875 -1.390625 28.375 -2.671875 C 26.875 -3.953125 25.691406 -5.613281 24.828125 -7.65625 C 23.960938 -9.707031 23.507812 -12.21875 23.46875 -15.1875 L 23.46875 -49.15625 L 8.4375 -49.15625 L 8.4375 -54.046875 L 23.46875 -54.046875 L 23.46875 -67.875 Z M 29.5625 -67.875 "/></g></g></g><g fill="#ffffff" fill-opacity="1"><g transform="translate(327.187423, 412.838367)"><g><path d="M 29.5625 -67.875 L 29.5625 -54.046875 L 49.59375 -54.046875 L 49.59375 -49.15625 L 29.5625 -49.15625 L 29.5625 -15.140625 C 29.601562 -13.035156 29.929688 -11.289062 30.546875 -9.90625 C 31.160156 -8.53125 31.988281 -7.414062 33.03125 -6.5625 C 34.082031 -5.71875 35.316406 -5.113281 36.734375 -4.75 C 38.148438 -4.382812 39.691406 -4.203125 41.359375 -4.203125 C 43.023438 -4.203125 44.726562 -4.316406 46.46875 -4.546875 C 48.21875 -4.773438 49.710938 -5.007812 50.953125 -5.25 L 51.84375 -0.703125 C 50.414062 -0.128906 48.664062 0.296875 46.59375 0.578125 C 44.53125 0.859375 42.4375 1 40.3125 1 C 37.914062 1 35.703125 0.707031 33.671875 0.125 C 31.640625 -0.457031 29.875 -1.390625 28.375 -2.671875 C 26.875 -3.953125 25.691406 -5.613281 24.828125 -7.65625 C 23.960938 -9.707031 23.507812 -12.21875 23.46875 -15.1875 L 23.46875 -49.15625 L 8.4375 -49.15625 L 8.4375 -54.046875 L 23.46875 -54.046875 L 23.46875 -67.875 Z M 29.5625 -67.875 "/></g></g></g><g fill="#ffffff" fill-opacity="1"><g transform="translate(388.56759, 412.838367)"><g><path d="M 46.796875 0 C 46.429688 -1.09375 46.148438 -2.3125 45.953125 -3.65625 C 45.753906 -5.007812 45.617188 -6.390625 45.546875 -7.796875 C 44.515625 -6.523438 43.316406 -5.359375 41.953125 -4.296875 C 40.585938 -3.234375 39.097656 -2.304688 37.484375 -1.515625 C 35.867188 -0.734375 34.128906 -0.117188 32.265625 0.328125 C 30.398438 0.773438 28.453125 1 26.421875 1 C 23.890625 1 21.53125 0.632812 19.34375 -0.09375 C 17.164062 -0.832031 15.269531 -1.863281 13.65625 -3.1875 C 12.039062 -4.519531 10.773438 -6.128906 9.859375 -8.015625 C 8.941406 -9.898438 8.484375 -12.003906 8.484375 -14.328125 C 8.484375 -17.429688 9.164062 -20.0625 10.53125 -22.21875 C 11.90625 -24.382812 13.753906 -26.140625 16.078125 -27.484375 C 18.410156 -28.835938 21.109375 -29.832031 24.171875 -30.46875 C 27.234375 -31.101562 30.445312 -31.421875 33.8125 -31.421875 L 45.5 -31.421875 L 45.5 -37.5625 C 45.46875 -39.59375 45.066406 -41.378906 44.296875 -42.921875 C 43.535156 -44.472656 42.492188 -45.773438 41.171875 -46.828125 C 39.859375 -47.878906 38.296875 -48.671875 36.484375 -49.203125 C 34.671875 -49.734375 32.695312 -50 30.5625 -50 C 28.632812 -50 26.796875 -49.75 25.046875 -49.25 C 23.296875 -48.75 21.742188 -48.03125 20.390625 -47.09375 C 19.046875 -46.164062 17.957031 -45.023438 17.125 -43.671875 C 16.300781 -42.328125 15.851562 -40.804688 15.78125 -39.109375 L 9.796875 -39.15625 C 9.890625 -41.457031 10.492188 -43.570312 11.609375 -45.5 C 12.722656 -47.4375 14.226562 -49.109375 16.125 -50.515625 C 18.03125 -51.929688 20.238281 -53.039062 22.75 -53.84375 C 25.257812 -54.644531 27.945312 -55.046875 30.8125 -55.046875 C 33.675781 -55.046875 36.363281 -54.675781 38.875 -53.9375 C 41.394531 -53.207031 43.578125 -52.109375 45.421875 -50.640625 C 47.273438 -49.179688 48.742188 -47.351562 49.828125 -45.15625 C 50.910156 -42.957031 51.46875 -40.394531 51.5 -37.46875 L 51.5 -11.28125 C 51.5 -9.488281 51.65625 -7.675781 51.96875 -5.84375 C 52.289062 -4.007812 52.679688 -2.257812 53.140625 -0.59375 L 53.203125 0 Z M 27.078125 -4.296875 C 29.171875 -4.265625 31.175781 -4.515625 33.09375 -5.046875 C 35.007812 -5.578125 36.765625 -6.316406 38.359375 -7.265625 C 39.960938 -8.210938 41.378906 -9.34375 42.609375 -10.65625 C 43.835938 -11.976562 44.800781 -13.421875 45.5 -14.984375 L 45.5 -26.828125 L 34.609375 -26.828125 C 31.984375 -26.828125 29.453125 -26.625 27.015625 -26.21875 C 24.585938 -25.820312 22.441406 -25.164062 20.578125 -24.25 C 18.710938 -23.332031 17.222656 -22.109375 16.109375 -20.578125 C 14.992188 -19.046875 14.4375 -17.128906 14.4375 -14.828125 C 14.4375 -13.203125 14.769531 -11.738281 15.4375 -10.4375 C 16.101562 -9.132812 17 -8.023438 18.125 -7.109375 C 19.257812 -6.203125 20.59375 -5.503906 22.125 -5.015625 C 23.65625 -4.535156 25.304688 -4.296875 27.078125 -4.296875 Z M 27.078125 -4.296875 "/></g></g></g><g fill="#ffffff" fill-opacity="1"><g transform="translate(449.947741, 412.838367)"><g><path d="M 45.40625 -55.046875 C 46.90625 -55.046875 48.398438 -54.953125 49.890625 -54.765625 C 51.390625 -54.585938 52.640625 -54.332031 53.640625 -54 L 52.890625 -48.25 C 51.492188 -48.550781 50.097656 -48.785156 48.703125 -48.953125 C 47.304688 -49.117188 45.875 -49.203125 44.40625 -49.203125 C 39.34375 -49.203125 35.046875 -48 31.515625 -45.59375 C 27.984375 -43.195312 25.503906 -39.519531 24.078125 -34.5625 L 24.125 0 L 17.9375 0 L 17.9375 -54.046875 L 23.671875 -54.046875 L 24.078125 -44.65625 L 24.078125 -43.5625 C 26.273438 -47.125 29.1875 -49.925781 32.8125 -51.96875 C 36.445312 -54.019531 40.644531 -55.046875 45.40625 -55.046875 Z M 45.40625 -55.046875 "/></g></g></g><g fill="#ffffff" fill-opacity="1"><g transform="translate(511.327893, 412.838367)"><g><path d="M 46.796875 0 C 46.429688 -1.09375 46.148438 -2.3125 45.953125 -3.65625 C 45.753906 -5.007812 45.617188 -6.390625 45.546875 -7.796875 C 44.515625 -6.523438 43.316406 -5.359375 41.953125 -4.296875 C 40.585938 -3.234375 39.097656 -2.304688 37.484375 -1.515625 C 35.867188 -0.734375 34.128906 -0.117188 32.265625 0.328125 C 30.398438 0.773438 28.453125 1 26.421875 1 C 23.890625 1 21.53125 0.632812 19.34375 -0.09375 C 17.164062 -0.832031 15.269531 -1.863281 13.65625 -3.1875 C 12.039062 -4.519531 10.773438 -6.128906 9.859375 -8.015625 C 8.941406 -9.898438 8.484375 -12.003906 8.484375 -14.328125 C 8.484375 -17.429688 9.164062 -20.0625 10.53125 -22.21875 C 11.90625 -24.382812 13.753906 -26.140625 16.078125 -27.484375 C 18.410156 -28.835938 21.109375 -29.832031 24.171875 -30.46875 C 27.234375 -31.101562 30.445312 -31.421875 33.8125 -31.421875 L 45.5 -31.421875 L 45.5 -37.5625 C 45.46875 -39.59375 45.066406 -41.378906 44.296875 -42.921875 C 43.535156 -44.472656 42.492188 -45.773438 41.171875 -46.828125 C 39.859375 -47.878906 38.296875 -48.671875 36.484375 -49.203125 C 34.671875 -49.734375 32.695312 -50 30.5625 -50 C 28.632812 -50 26.796875 -49.75 25.046875 -49.25 C 23.296875 -48.75 21.742188 -48.03125 20.390625 -47.09375 C 19.046875 -46.164062 17.957031 -45.023438 17.125 -43.671875 C 16.300781 -42.328125 15.851562 -40.804688 15.78125 -39.109375 L 9.796875 -39.15625 C 9.890625 -41.457031 10.492188 -43.570312 11.609375 -45.5 C 12.722656 -47.4375 14.226562 -49.109375 16.125 -50.515625 C 18.03125 -51.929688 20.238281 -53.039062 22.75 -53.84375 C 25.257812 -54.644531 27.945312 -55.046875 30.8125 -55.046875 C 33.675781 -55.046875 36.363281 -54.675781 38.875 -53.9375 C 41.394531 -53.207031 43.578125 -52.109375 45.421875 -50.640625 C 47.273438 -49.179688 48.742188 -47.351562 49.828125 -45.15625 C 50.910156 -42.957031 51.46875 -40.394531 51.5 -37.46875 L 51.5 -11.28125 C 51.5 -9.488281 51.65625 -7.675781 51.96875 -5.84375 C 52.289062 -4.007812 52.679688 -2.257812 53.140625 -0.59375 L 53.203125 0 Z M 27.078125 -4.296875 C 29.171875 -4.265625 31.175781 -4.515625 33.09375 -5.046875 C 35.007812 -5.578125 36.765625 -6.316406 38.359375 -7.265625 C 39.960938 -8.210938 41.378906 -9.34375 42.609375 -10.65625 C 43.835938 -11.976562 44.800781 -13.421875 45.5 -14.984375 L 45.5 -26.828125 L 34.609375 -26.828125 C 31.984375 -26.828125 29.453125 -26.625 27.015625 -26.21875 C 24.585938 -25.820312 22.441406 -25.164062 20.578125 -24.25 C 18.710938 -23.332031 17.222656 -22.109375 16.109375 -20.578125 C 14.992188 -19.046875 14.4375 -17.128906 14.4375 -14.828125 C 14.4375 -13.203125 14.769531 -11.738281 15.4375 -10.4375 C 16.101562 -9.132812 17 -8.023438 18.125 -7.109375 C 19.257812 -6.203125 20.59375 -5.503906 22.125 -5.015625 C 23.65625 -4.535156 25.304688 -4.296875 27.078125 -4.296875 Z M 27.078125 -4.296875 "/></g></g></g><g fill="#ffffff" fill-opacity="1"><g transform="translate(572.708045, 412.838367)"><g><path d="M 11.03125 -54.046875 L 36.109375 -54.046875 L 36.109375 -5.296875 L 54.5 -5.296875 L 54.5 0 L 11.03125 0 L 11.03125 -5.296875 L 30.125 -5.296875 L 30.125 -48.703125 L 11.03125 -48.703125 Z M 28.375 -68.828125 C 28.375 -70.054688 28.722656 -71.117188 29.421875 -72.015625 C 30.117188 -72.921875 31.285156 -73.375 32.921875 -73.375 C 34.515625 -73.375 35.671875 -72.921875 36.390625 -72.015625 C 37.109375 -71.117188 37.46875 -70.054688 37.46875 -68.828125 C 37.46875 -67.660156 37.109375 -66.632812 36.390625 -65.75 C 35.671875 -64.875 34.515625 -64.4375 32.921875 -64.4375 C 31.285156 -64.4375 30.117188 -64.875 29.421875 -65.75 C 28.722656 -66.632812 28.375 -67.660156 28.375 -68.828125 Z M 28.375 -68.828125 "/></g></g></g></svg>