<svg xmlns="http://www.w3.org/2000/svg" xmlns:xlink="http://www.w3.org/1999/xlink" zoomAndPan="magnify" preserveAspectRatio="xMidYMid meet" version="1.0" viewBox="32.77 127.37 309.45 128.4"><defs><g/><clipPath id="id1"><path d="M 32.761719 127.507812 L 51.511719 127.507812 L 51.511719 255.757812 L 32.761719 255.757812 Z M 32.761719 127.507812 " clip-rule="nonzero"/></clipPath><clipPath id="id2"><path d="M 323.480469 127.390625 L 342.230469 127.390625 L 342.230469 255.640625 L 323.480469 255.640625 Z M 323.480469 127.390625 " clip-rule="nonzero"/></clipPath></defs><g clip-path="url(#id1)"><path fill="#ffffff" d="M 36.367188 191.582031 C 37.097656 190.992188 37.804688 190.375 38.429688 189.683594 C 39.839844 188.144531 41.015625 186.402344 41.953125 184.53125 C 42.894531 182.65625 43.574219 180.683594 44.070312 178.632812 C 44.539062 176.605469 44.828125 174.554688 44.957031 172.53125 C 45.246094 168.480469 45.0625 164.503906 45.007812 160.761719 C 44.957031 157.019531 44.984375 153.402344 45.085938 149.992188 C 45.140625 148.300781 45.21875 146.660156 45.296875 145.097656 C 45.347656 144.328125 45.402344 143.558594 45.425781 142.8125 C 45.480469 142.097656 45.53125 141.378906 45.609375 140.710938 C 45.765625 139.351562 45.976562 138.097656 46.261719 136.992188 C 46.394531 136.429688 46.550781 135.917969 46.707031 135.402344 C 46.890625 134.917969 47.019531 134.429688 47.226562 134.019531 C 47.960938 132.300781 48.792969 131.226562 49.449219 130.609375 C 49.527344 130.53125 49.605469 130.457031 49.683594 130.402344 C 49.761719 130.351562 49.839844 130.277344 49.890625 130.226562 C 50.023438 130.121094 50.125 130.019531 50.230469 129.941406 C 50.414062 129.816406 50.519531 129.761719 50.519531 129.761719 C 50.933594 129.457031 51.25 129.226562 51.378906 128.96875 C 51.507812 128.710938 51.484375 128.480469 51.195312 128.351562 C 50.933594 128.226562 50.648438 128.121094 50.359375 128.019531 C 50.203125 127.96875 50.074219 127.917969 49.917969 127.867188 C 49.761719 127.839844 49.628906 127.789062 49.472656 127.761719 C 49.160156 127.6875 48.847656 127.636719 48.507812 127.609375 C 48.140625 127.507812 47.828125 127.507812 47.488281 127.507812 C 47.308594 127.507812 47.070312 127.558594 46.785156 127.660156 C 46.523438 127.789062 46.238281 127.941406 45.921875 128.171875 C 45.609375 128.378906 45.324219 128.660156 45.035156 128.96875 C 44.90625 129.121094 44.75 129.277344 44.644531 129.429688 C 44.539062 129.582031 44.410156 129.761719 44.304688 129.941406 C 44.304688 129.941406 44.226562 130.097656 44.070312 130.351562 C 43.914062 130.636719 43.730469 131.046875 43.46875 131.582031 C 43 132.660156 42.449219 134.277344 42.035156 136.277344 C 41.617188 138.277344 41.40625 140.710938 41.328125 143.378906 C 41.25 145.992188 41.199219 148.941406 41.222656 152.121094 C 41.25 155.300781 41.328125 158.710938 41.484375 162.25 C 41.640625 165.785156 41.824219 169.402344 41.589844 172.992188 C 41.355469 176.582031 40.648438 180.171875 39.03125 183.351562 C 38.246094 184.941406 37.257812 186.425781 36.082031 187.710938 C 35.351562 188.503906 34.515625 189.222656 33.652344 189.835938 L 33.628906 189.863281 C 33.390625 190.042969 33.183594 190.246094 33.054688 190.503906 C 32.871094 190.863281 32.765625 191.246094 32.792969 191.632812 C 32.792969 192.015625 32.871094 192.402344 33.054688 192.761719 C 33.183594 193.015625 33.390625 193.246094 33.628906 193.402344 L 33.652344 193.425781 C 34.539062 194.042969 35.351562 194.761719 36.082031 195.554688 C 37.257812 196.835938 38.246094 198.296875 39.03125 199.914062 C 40.625 203.09375 41.355469 206.683594 41.589844 210.273438 C 41.824219 213.886719 41.640625 217.503906 41.484375 221.015625 C 41.328125 224.554688 41.222656 227.964844 41.222656 231.144531 C 41.199219 234.320312 41.25 237.246094 41.328125 239.886719 C 41.40625 242.550781 41.617188 244.960938 42.035156 246.988281 C 42.425781 248.988281 43 250.601562 43.46875 251.679688 C 43.730469 252.21875 43.914062 252.628906 44.070312 252.910156 C 44.226562 253.191406 44.304688 253.320312 44.304688 253.320312 C 44.410156 253.5 44.511719 253.65625 44.644531 253.832031 C 44.773438 253.988281 44.90625 254.140625 45.035156 254.296875 C 45.324219 254.601562 45.582031 254.886719 45.921875 255.089844 C 46.238281 255.296875 46.523438 255.476562 46.785156 255.601562 C 47.070312 255.707031 47.308594 255.757812 47.488281 255.757812 C 47.828125 255.757812 48.167969 255.757812 48.507812 255.707031 C 48.847656 255.65625 49.160156 255.601562 49.472656 255.550781 C 49.628906 255.527344 49.785156 255.476562 49.917969 255.449219 C 50.074219 255.398438 50.230469 255.347656 50.359375 255.296875 C 50.648438 255.191406 50.933594 255.089844 51.195312 254.960938 C 51.484375 254.832031 51.507812 254.601562 51.378906 254.347656 C 51.25 254.089844 50.933594 253.859375 50.519531 253.550781 C 50.519531 253.550781 50.414062 253.5 50.230469 253.371094 C 50.125 253.296875 50.023438 253.21875 49.890625 253.089844 C 49.8125 253.039062 49.761719 252.988281 49.683594 252.910156 C 49.605469 252.859375 49.527344 252.78125 49.449219 252.707031 C 48.792969 252.089844 47.933594 251.011719 47.226562 249.296875 C 47.019531 248.886719 46.890625 248.398438 46.707031 247.910156 C 46.550781 247.398438 46.394531 246.886719 46.261719 246.320312 C 46 245.195312 45.765625 243.9375 45.609375 242.605469 C 45.53125 241.9375 45.480469 241.21875 45.425781 240.5 C 45.375 239.757812 45.324219 238.988281 45.296875 238.21875 C 45.21875 236.65625 45.140625 235.015625 45.085938 233.320312 C 44.984375 229.9375 44.929688 226.324219 45.007812 222.554688 C 45.0625 218.808594 45.246094 214.835938 44.957031 210.785156 C 44.828125 208.757812 44.539062 206.707031 44.070312 204.683594 C 43.574219 202.65625 42.894531 200.65625 41.953125 198.785156 C 41.042969 196.914062 39.867188 195.171875 38.429688 193.632812 C 37.804688 192.941406 37.097656 192.296875 36.367188 191.734375 Z M 36.367188 191.582031 " fill-opacity="1" fill-rule="nonzero"/></g><g clip-path="url(#id2)"><path fill="#ffffff" d="M 338.625 191.566406 C 337.894531 192.15625 337.1875 192.769531 336.5625 193.464844 C 335.152344 195 333.976562 196.746094 333.039062 198.617188 C 332.097656 200.488281 331.417969 202.464844 330.921875 204.515625 C 330.453125 206.539062 330.167969 208.589844 330.035156 210.617188 C 329.75 214.667969 329.929688 218.640625 329.984375 222.386719 C 330.035156 226.128906 330.007812 229.742188 329.90625 233.152344 C 329.851562 234.847656 329.773438 236.488281 329.695312 238.050781 C 329.644531 238.820312 329.589844 239.589844 329.566406 240.332031 C 329.511719 241.050781 329.460938 241.769531 329.382812 242.433594 C 329.226562 243.792969 329.015625 245.050781 328.730469 246.152344 C 328.601562 246.71875 328.441406 247.230469 328.285156 247.742188 C 328.105469 248.230469 327.972656 248.71875 327.765625 249.128906 C 327.035156 250.84375 326.199219 251.921875 325.546875 252.539062 C 325.46875 252.613281 325.390625 252.691406 325.308594 252.742188 C 325.230469 252.792969 325.152344 252.871094 325.101562 252.921875 C 324.972656 253.023438 324.867188 253.128906 324.761719 253.203125 C 324.578125 253.332031 324.476562 253.382812 324.476562 253.382812 C 324.058594 253.691406 323.742188 253.921875 323.613281 254.179688 C 323.484375 254.433594 323.507812 254.664062 323.796875 254.792969 C 324.058594 254.921875 324.34375 255.023438 324.632812 255.128906 C 324.789062 255.179688 324.917969 255.230469 325.074219 255.28125 C 325.230469 255.304688 325.363281 255.359375 325.519531 255.382812 C 325.832031 255.460938 326.144531 255.511719 326.484375 255.539062 C 326.851562 255.640625 327.164062 255.640625 327.503906 255.640625 C 327.6875 255.640625 327.921875 255.589844 328.207031 255.484375 C 328.46875 255.359375 328.757812 255.203125 329.070312 254.972656 C 329.382812 254.769531 329.671875 254.484375 329.957031 254.179688 C 330.085938 254.023438 330.246094 253.871094 330.347656 253.714844 C 330.453125 253.5625 330.582031 253.382812 330.6875 253.203125 C 330.6875 253.203125 330.765625 253.050781 330.921875 252.792969 C 331.078125 252.511719 331.261719 252.101562 331.523438 251.5625 C 331.992188 250.484375 332.542969 248.871094 332.960938 246.871094 C 333.378906 244.871094 333.585938 242.433594 333.664062 239.769531 C 333.742188 237.152344 333.792969 234.203125 333.769531 231.027344 C 333.742188 227.847656 333.664062 224.4375 333.507812 220.898438 C 333.351562 217.359375 333.167969 213.746094 333.402344 210.15625 C 333.636719 206.566406 334.34375 202.976562 335.960938 199.796875 C 336.746094 198.207031 337.738281 196.71875 338.910156 195.4375 C 339.640625 194.644531 340.476562 193.925781 341.339844 193.308594 L 341.367188 193.285156 C 341.601562 193.105469 341.808594 192.898438 341.941406 192.644531 C 342.121094 192.285156 342.226562 191.898438 342.199219 191.515625 C 342.199219 191.128906 342.121094 190.746094 341.941406 190.386719 C 341.808594 190.128906 341.601562 189.898438 341.367188 189.746094 L 341.339844 189.71875 C 340.453125 189.105469 339.640625 188.386719 338.910156 187.59375 C 337.738281 186.308594 336.746094 184.847656 335.960938 183.234375 C 334.367188 180.054688 333.636719 176.464844 333.402344 172.875 C 333.167969 169.257812 333.351562 165.644531 333.507812 162.132812 C 333.664062 158.59375 333.769531 155.183594 333.769531 152.003906 C 333.792969 148.824219 333.742188 145.902344 333.664062 143.261719 C 333.585938 140.59375 333.378906 138.183594 332.960938 136.160156 C 332.566406 134.160156 331.992188 132.542969 331.523438 131.464844 C 331.261719 130.929688 331.078125 130.519531 330.921875 130.234375 C 330.765625 129.953125 330.6875 129.824219 330.6875 129.824219 C 330.582031 129.644531 330.480469 129.492188 330.347656 129.3125 C 330.21875 129.160156 330.085938 129.003906 329.957031 128.851562 C 329.671875 128.542969 329.410156 128.261719 329.070312 128.054688 C 328.757812 127.851562 328.46875 127.671875 328.207031 127.542969 C 327.921875 127.441406 327.6875 127.390625 327.503906 127.390625 C 327.164062 127.390625 326.824219 127.390625 326.484375 127.441406 C 326.144531 127.492188 325.832031 127.542969 325.519531 127.59375 C 325.363281 127.621094 325.207031 127.671875 325.074219 127.699219 C 324.917969 127.75 324.761719 127.800781 324.632812 127.851562 C 324.34375 127.953125 324.058594 128.054688 323.796875 128.183594 C 323.507812 128.3125 323.484375 128.542969 323.613281 128.800781 C 323.742188 129.054688 324.058594 129.289062 324.476562 129.59375 C 324.476562 129.59375 324.578125 129.644531 324.761719 129.773438 C 324.867188 129.851562 324.972656 129.929688 325.101562 130.054688 C 325.179688 130.109375 325.230469 130.160156 325.308594 130.234375 C 325.386719 130.285156 325.46875 130.363281 325.546875 130.441406 C 326.199219 131.054688 327.058594 132.132812 327.765625 133.851562 C 327.972656 134.261719 328.105469 134.75 328.285156 135.234375 C 328.441406 135.75 328.601562 136.261719 328.730469 136.824219 C 328.992188 137.953125 329.226562 139.210938 329.382812 140.542969 C 329.460938 141.210938 329.511719 141.925781 329.566406 142.644531 C 329.617188 143.390625 329.671875 144.15625 329.695312 144.925781 C 329.773438 146.492188 329.851562 148.132812 329.90625 149.824219 C 330.007812 153.210938 330.0625 156.824219 329.984375 160.59375 C 329.929688 164.335938 329.75 168.3125 330.035156 172.363281 C 330.167969 174.386719 330.453125 176.4375 330.921875 178.464844 C 331.417969 180.488281 332.097656 182.488281 333.039062 184.359375 C 333.953125 186.234375 335.125 187.976562 336.5625 189.515625 C 337.1875 190.207031 337.894531 190.847656 338.625 191.414062 Z M 338.625 191.566406 " fill-opacity="1" fill-rule="nonzero"/></g><g fill="#ff9f29" fill-opacity="1"><g transform="translate(60.492191, 187.345858)"><g><path d="M 5.59375 -51.109375 L 13.296875 -51.109375 L 13.296875 -39 C 13.296875 -38.34375 13.285156 -37.59375 13.265625 -36.75 C 13.242188 -35.914062 13.207031 -35.125 13.15625 -34.375 C 13.0625 -33.539062 12.992188 -32.703125 12.953125 -31.859375 L 13.515625 -31.859375 C 14.023438 -34.191406 15.203125 -36 17.046875 -37.28125 C 18.890625 -38.5625 21.210938 -39.203125 24.015625 -39.203125 C 25.972656 -39.203125 27.769531 -38.851562 29.40625 -38.15625 C 31.039062 -37.457031 32.425781 -36.453125 33.5625 -35.140625 C 34.707031 -33.835938 35.59375 -32.265625 36.21875 -30.421875 C 36.851562 -28.578125 37.171875 -26.488281 37.171875 -24.15625 L 37.171875 -14.5 C 37.171875 -12.164062 36.851562 -10.050781 36.21875 -8.15625 C 35.59375 -6.269531 34.707031 -4.671875 33.5625 -3.359375 C 32.425781 -2.054688 31.039062 -1.050781 29.40625 -0.34375 C 27.769531 0.351562 25.972656 0.703125 24.015625 0.703125 C 21.210938 0.703125 18.890625 0.0625 17.046875 -1.21875 C 15.203125 -2.507812 14.023438 -4.320312 13.515625 -6.65625 L 12.953125 -6.65625 L 12.953125 0 L 5.59375 0 Z M 13.296875 -14.5 C 13.296875 -11.925781 14.007812 -9.867188 15.4375 -8.328125 C 16.863281 -6.785156 18.789062 -6.015625 21.21875 -6.015625 C 23.78125 -6.015625 25.796875 -6.785156 27.265625 -8.328125 C 28.742188 -9.867188 29.484375 -11.945312 29.484375 -14.5625 L 29.484375 -24.015625 C 29.484375 -26.671875 28.742188 -28.757812 27.265625 -30.28125 C 25.796875 -31.800781 23.78125 -32.5625 21.21875 -32.5625 C 18.832031 -32.5625 16.914062 -31.789062 15.46875 -30.25 C 14.019531 -28.707031 13.296875 -26.628906 13.296875 -24.015625 Z M 13.296875 -14.5 "/></g></g></g><g fill="#ffffff" fill-opacity="1"><g transform="translate(102.485964, 187.345858)"><g><path d="M 6.15625 0 L 6.15625 -7 L 20.09375 -7 L 20.09375 -31.578125 L 7.90625 -31.578125 L 7.90625 -38.515625 L 27.515625 -38.515625 L 27.515625 -7 L 38.859375 -7 L 38.859375 0 Z M 22.0625 -53.5625 L 23.671875 -53.5625 C 25.109375 -53.5625 26.269531 -53.148438 27.15625 -52.328125 C 28.050781 -51.515625 28.5 -50.429688 28.5 -49.078125 C 28.5 -47.722656 28.050781 -46.648438 27.15625 -45.859375 C 26.269531 -45.066406 25.109375 -44.671875 23.671875 -44.671875 L 22.0625 -44.671875 C 20.613281 -44.671875 19.457031 -45.066406 18.59375 -45.859375 C 17.726562 -46.648438 17.296875 -47.722656 17.296875 -49.078125 C 17.296875 -50.429688 17.726562 -51.515625 18.59375 -52.328125 C 19.457031 -53.148438 20.613281 -53.5625 22.0625 -53.5625 Z M 22.0625 -53.5625 "/></g></g></g><g fill="#ffffff" fill-opacity="1"><g transform="translate(144.491658, 187.345858)"><g><path d="M 19.671875 0.703125 C 15.378906 0.703125 11.890625 -0.21875 9.203125 -2.0625 C 6.523438 -3.90625 5 -6.4375 4.625 -9.65625 L 12.609375 -9.65625 C 12.878906 -8.394531 13.65625 -7.390625 14.9375 -6.640625 C 16.226562 -5.898438 17.804688 -5.53125 19.671875 -5.53125 L 22.1875 -5.53125 C 24.476562 -5.53125 26.265625 -5.992188 27.546875 -6.921875 C 28.835938 -7.859375 29.484375 -9.144531 29.484375 -10.78125 C 29.484375 -13.582031 27.425781 -15.265625 23.3125 -15.828125 L 17.71875 -16.59375 C 13.5625 -17.101562 10.488281 -18.289062 8.5 -20.15625 C 6.519531 -22.03125 5.53125 -24.644531 5.53125 -28 C 5.53125 -31.550781 6.773438 -34.304688 9.265625 -36.265625 C 11.765625 -38.222656 15.328125 -39.203125 19.953125 -39.203125 L 22.40625 -39.203125 C 26.46875 -39.203125 29.769531 -38.300781 32.3125 -36.5 C 34.851562 -34.707031 36.359375 -32.273438 36.828125 -29.203125 L 28.921875 -29.203125 C 28.640625 -30.367188 27.914062 -31.289062 26.75 -31.96875 C 25.582031 -32.644531 24.132812 -32.984375 22.40625 -32.984375 L 19.953125 -32.984375 C 17.753906 -32.984375 16.070312 -32.570312 14.90625 -31.75 C 13.738281 -30.9375 13.15625 -29.710938 13.15625 -28.078125 C 13.15625 -26.722656 13.585938 -25.671875 14.453125 -24.921875 C 15.316406 -24.179688 16.707031 -23.691406 18.625 -23.453125 L 24.359375 -22.6875 C 28.753906 -22.082031 31.976562 -20.84375 34.03125 -18.96875 C 36.082031 -17.101562 37.109375 -14.445312 37.109375 -11 C 37.109375 -7.257812 35.820312 -4.375 33.25 -2.34375 C 30.6875 -0.3125 27 0.703125 22.1875 0.703125 Z M 19.671875 0.703125 "/></g></g></g><g fill="#ffffff" fill-opacity="1"><g transform="translate(186.497352, 187.345858)"><g><path d="M 5.53125 -51.109375 L 13.234375 -51.109375 L 13.234375 -38.515625 C 13.234375 -37.859375 13.207031 -37.144531 13.15625 -36.375 C 13.113281 -35.601562 13.054688 -34.878906 12.984375 -34.203125 C 12.921875 -33.523438 12.875 -32.960938 12.84375 -32.515625 C 12.820312 -32.078125 12.8125 -31.859375 12.8125 -31.859375 L 13.4375 -31.859375 C 13.957031 -34.191406 15.113281 -36 16.90625 -37.28125 C 18.707031 -38.5625 20.984375 -39.203125 23.734375 -39.203125 C 25.648438 -39.203125 27.390625 -38.875 28.953125 -38.21875 C 30.515625 -37.570312 31.84375 -36.640625 32.9375 -35.421875 C 34.039062 -34.210938 34.894531 -32.753906 35.5 -31.046875 C 36.101562 -29.347656 36.40625 -27.445312 36.40625 -25.34375 L 36.40625 0 L 28.78125 0 L 28.78125 -24.296875 C 28.78125 -26.910156 28.085938 -28.953125 26.703125 -30.421875 C 25.328125 -31.890625 23.453125 -32.625 21.078125 -32.625 C 18.648438 -32.625 16.734375 -31.851562 15.328125 -30.3125 C 13.929688 -28.769531 13.234375 -26.671875 13.234375 -24.015625 L 13.234375 0 L 5.53125 0 Z M 5.53125 -51.109375 "/></g></g></g><g fill="#ffffff" fill-opacity="1"><g transform="translate(228.503047, 187.345858)"><g><path d="M 12.53125 -14.5 C 12.53125 -11.882812 13.273438 -9.828125 14.765625 -8.328125 C 16.265625 -6.835938 18.34375 -6.09375 21 -6.09375 C 23.613281 -6.09375 25.679688 -6.835938 27.203125 -8.328125 C 28.722656 -9.828125 29.484375 -11.882812 29.484375 -14.5 L 29.484375 -24.078125 C 29.484375 -26.691406 28.722656 -28.742188 27.203125 -30.234375 C 25.679688 -31.734375 23.613281 -32.484375 21 -32.484375 C 18.4375 -32.484375 16.382812 -31.722656 14.84375 -30.203125 C 13.300781 -28.691406 12.53125 -26.648438 12.53125 -24.078125 Z M 4.828125 -24.078125 C 4.828125 -26.367188 5.210938 -28.445312 5.984375 -30.3125 C 6.753906 -32.1875 7.835938 -33.773438 9.234375 -35.078125 C 10.640625 -36.378906 12.34375 -37.390625 14.34375 -38.109375 C 16.351562 -38.835938 18.570312 -39.203125 21 -39.203125 C 23.476562 -39.203125 25.707031 -38.835938 27.6875 -38.109375 C 29.675781 -37.390625 31.367188 -36.378906 32.765625 -35.078125 C 34.171875 -33.773438 35.253906 -32.1875 36.015625 -30.3125 C 36.785156 -28.445312 37.171875 -26.367188 37.171875 -24.078125 L 37.171875 -14.5 C 37.171875 -12.207031 36.785156 -10.113281 36.015625 -8.21875 C 35.253906 -6.332031 34.171875 -4.734375 32.765625 -3.421875 C 31.367188 -2.117188 29.675781 -1.101562 27.6875 -0.375 C 25.707031 0.34375 23.476562 0.703125 21 0.703125 C 18.570312 0.703125 16.351562 0.34375 14.34375 -0.375 C 12.34375 -1.101562 10.640625 -2.132812 9.234375 -3.46875 C 7.835938 -4.800781 6.753906 -6.398438 5.984375 -8.265625 C 5.210938 -10.128906 4.828125 -12.207031 4.828125 -14.5 Z M 4.828125 -24.078125 "/></g></g></g><g fill="#ffffff" fill-opacity="1"><g transform="translate(270.508741, 187.345858)"><g><path d="M 7.421875 -38.515625 L 10.578125 -13.515625 C 10.671875 -12.816406 10.765625 -11.941406 10.859375 -10.890625 C 10.953125 -9.835938 11.039062 -8.84375 11.125 -7.90625 C 11.21875 -6.738281 11.3125 -5.550781 11.40625 -4.34375 L 12.109375 -4.34375 C 12.253906 -5.550781 12.394531 -6.738281 12.53125 -7.90625 C 12.675781 -8.882812 12.828125 -9.898438 12.984375 -10.953125 C 13.148438 -12.003906 13.28125 -12.859375 13.375 -13.515625 L 17.21875 -38.515625 L 24.78125 -38.515625 L 28.640625 -13.515625 C 28.734375 -12.816406 28.847656 -11.941406 28.984375 -10.890625 C 29.128906 -9.835938 29.25 -8.820312 29.34375 -7.84375 C 29.476562 -6.71875 29.613281 -5.550781 29.75 -4.34375 L 30.53125 -4.34375 C 30.664062 -5.550781 30.78125 -6.738281 30.875 -7.90625 C 30.96875 -8.84375 31.070312 -9.835938 31.1875 -10.890625 C 31.300781 -11.941406 31.40625 -12.816406 31.5 -13.515625 L 34.65625 -38.515625 L 40.40625 -38.515625 L 35.015625 0 L 25.765625 0 L 21.84375 -25.90625 C 21.75 -26.601562 21.664062 -27.414062 21.59375 -28.34375 C 21.53125 -29.28125 21.472656 -30.148438 21.421875 -30.953125 C 21.378906 -31.929688 21.359375 -32.910156 21.359375 -33.890625 L 20.71875 -33.890625 C 20.675781 -32.910156 20.628906 -31.929688 20.578125 -30.953125 C 20.535156 -30.148438 20.476562 -29.28125 20.40625 -28.34375 C 20.332031 -27.414062 20.226562 -26.601562 20.09375 -25.90625 L 16.03125 0 L 6.9375 0 L 1.609375 -38.515625 Z M 7.421875 -38.515625 "/></g></g></g><g fill="#ff9f29" fill-opacity="1"><g transform="translate(62.301953, 231.069454)"><g><path d="M 24.078125 -12.140625 C 24.066406 -11.179688 23.984375 -10.203125 23.828125 -9.203125 C 23.679688 -8.203125 23.445312 -7.238281 23.125 -6.3125 C 22.800781 -5.382812 22.382812 -4.507812 21.875 -3.6875 C 21.363281 -2.863281 20.742188 -2.144531 20.015625 -1.53125 C 19.296875 -0.925781 18.46875 -0.441406 17.53125 -0.078125 C 16.59375 0.273438 15.53125 0.453125 14.34375 0.453125 C 13.59375 0.453125 12.835938 0.359375 12.078125 0.171875 C 11.316406 -0.00390625 10.582031 -0.265625 9.875 -0.609375 C 9.164062 -0.960938 8.507812 -1.394531 7.90625 -1.90625 C 7.300781 -2.414062 6.785156 -3 6.359375 -3.65625 L 6.359375 0 L 5.125 0 L 5.125 -35.140625 L 6.359375 -35.140625 L 6.359375 -20.546875 C 6.765625 -21.242188 7.257812 -21.878906 7.84375 -22.453125 C 8.425781 -23.035156 9.054688 -23.53125 9.734375 -23.9375 C 10.421875 -24.34375 11.148438 -24.65625 11.921875 -24.875 C 12.691406 -25.09375 13.484375 -25.203125 14.296875 -25.203125 C 15.503906 -25.203125 16.582031 -25.023438 17.53125 -24.671875 C 18.488281 -24.328125 19.320312 -23.851562 20.03125 -23.25 C 20.75 -22.644531 21.363281 -21.929688 21.875 -21.109375 C 22.382812 -20.285156 22.800781 -19.410156 23.125 -18.484375 C 23.457031 -17.554688 23.695312 -16.59375 23.84375 -15.59375 C 23.988281 -14.59375 24.066406 -13.601562 24.078125 -12.625 Z M 22.796875 -12.625 C 22.785156 -13.46875 22.71875 -14.332031 22.59375 -15.21875 C 22.476562 -16.113281 22.285156 -16.976562 22.015625 -17.8125 C 21.742188 -18.65625 21.394531 -19.445312 20.96875 -20.1875 C 20.539062 -20.9375 20.007812 -21.585938 19.375 -22.140625 C 18.75 -22.703125 18.019531 -23.144531 17.1875 -23.46875 C 16.351562 -23.800781 15.394531 -23.96875 14.3125 -23.96875 C 13.40625 -23.96875 12.53125 -23.820312 11.6875 -23.53125 C 10.851562 -23.25 10.085938 -22.835938 9.390625 -22.296875 C 8.691406 -21.765625 8.078125 -21.128906 7.546875 -20.390625 C 7.023438 -19.648438 6.628906 -18.835938 6.359375 -17.953125 L 6.359375 -5.96875 C 6.648438 -5.132812 7.082031 -4.390625 7.65625 -3.734375 C 8.226562 -3.085938 8.867188 -2.539062 9.578125 -2.09375 C 10.296875 -1.65625 11.066406 -1.328125 11.890625 -1.109375 C 12.710938 -0.890625 13.535156 -0.78125 14.359375 -0.78125 C 15.429688 -0.78125 16.382812 -0.941406 17.21875 -1.265625 C 18.0625 -1.597656 18.789062 -2.046875 19.40625 -2.609375 C 20.019531 -3.171875 20.546875 -3.828125 20.984375 -4.578125 C 21.421875 -5.328125 21.769531 -6.117188 22.03125 -6.953125 C 22.300781 -7.796875 22.492188 -8.65625 22.609375 -9.53125 C 22.722656 -10.414062 22.785156 -11.285156 22.796875 -12.140625 Z M 22.796875 -12.625 "/></g></g></g><g fill="#ffffff" fill-opacity="1"><g transform="translate(90.413388, 231.069454)"><g><path d="M 6.125 -18.78125 C 6.519531 -19.695312 7.019531 -20.546875 7.625 -21.328125 C 8.238281 -22.109375 8.9375 -22.785156 9.71875 -23.359375 C 10.507812 -23.929688 11.378906 -24.378906 12.328125 -24.703125 C 13.273438 -25.035156 14.289062 -25.203125 15.375 -25.203125 C 16.789062 -25.203125 18.015625 -24.972656 19.046875 -24.515625 C 20.085938 -24.054688 20.941406 -23.421875 21.609375 -22.609375 C 22.285156 -21.796875 22.785156 -20.820312 23.109375 -19.6875 C 23.441406 -18.5625 23.613281 -17.335938 23.625 -16.015625 L 23.625 0 L 22.375 0 L 22.375 -16.015625 C 22.351562 -17.171875 22.207031 -18.238281 21.9375 -19.21875 C 21.675781 -20.207031 21.257812 -21.054688 20.6875 -21.765625 C 20.113281 -22.472656 19.382812 -23.023438 18.5 -23.421875 C 17.613281 -23.816406 16.546875 -24.007812 15.296875 -24 C 14.179688 -23.976562 13.117188 -23.753906 12.109375 -23.328125 C 11.109375 -22.898438 10.203125 -22.328125 9.390625 -21.609375 C 8.578125 -20.898438 7.882812 -20.0625 7.3125 -19.09375 C 6.75 -18.132812 6.351562 -17.125 6.125 -16.0625 L 6.125 0 L 4.875 0 L 4.875 -35.140625 L 6.125 -35.140625 Z M 6.125 -18.78125 "/></g></g></g><g fill="#ffffff" fill-opacity="1"><g transform="translate(118.527006, 231.069454)"><g><path d="M 22.625 0 C 22.4375 -0.78125 22.3125 -1.550781 22.25 -2.3125 C 22.1875 -3.070312 22.148438 -3.84375 22.140625 -4.625 C 21.609375 -3.78125 20.972656 -3.035156 20.234375 -2.390625 C 19.492188 -1.753906 18.6875 -1.226562 17.8125 -0.8125 C 16.945312 -0.394531 16.023438 -0.0820312 15.046875 0.125 C 14.078125 0.34375 13.078125 0.453125 12.046875 0.453125 C 11.054688 0.453125 10.085938 0.300781 9.140625 0 C 8.203125 -0.289062 7.363281 -0.71875 6.625 -1.28125 C 5.894531 -1.84375 5.304688 -2.539062 4.859375 -3.375 C 4.421875 -4.21875 4.203125 -5.179688 4.203125 -6.265625 C 4.203125 -7.742188 4.5625 -8.96875 5.28125 -9.9375 C 6 -10.90625 6.925781 -11.675781 8.0625 -12.25 C 9.195312 -12.820312 10.460938 -13.222656 11.859375 -13.453125 C 13.265625 -13.679688 14.65625 -13.800781 16.03125 -13.8125 L 22.140625 -13.8125 L 22.140625 -17.421875 C 22.109375 -18.535156 21.878906 -19.503906 21.453125 -20.328125 C 21.023438 -21.148438 20.457031 -21.828125 19.75 -22.359375 C 19.039062 -22.898438 18.21875 -23.300781 17.28125 -23.5625 C 16.34375 -23.832031 15.351562 -23.96875 14.3125 -23.96875 C 13.40625 -23.96875 12.472656 -23.84375 11.515625 -23.59375 C 10.566406 -23.351562 9.703125 -22.984375 8.921875 -22.484375 C 8.140625 -21.992188 7.488281 -21.367188 6.96875 -20.609375 C 6.457031 -19.859375 6.175781 -18.96875 6.125 -17.9375 L 4.890625 -17.984375 C 4.953125 -19.179688 5.273438 -20.226562 5.859375 -21.125 C 6.453125 -22.03125 7.191406 -22.785156 8.078125 -23.390625 C 8.972656 -23.992188 9.960938 -24.445312 11.046875 -24.75 C 12.140625 -25.050781 13.226562 -25.203125 14.3125 -25.203125 C 15.53125 -25.203125 16.6875 -25.035156 17.78125 -24.703125 C 18.875 -24.378906 19.832031 -23.894531 20.65625 -23.25 C 21.476562 -22.601562 22.128906 -21.785156 22.609375 -20.796875 C 23.085938 -19.816406 23.34375 -18.679688 23.375 -17.390625 L 23.375 -4.984375 C 23.394531 -4.148438 23.472656 -3.347656 23.609375 -2.578125 C 23.742188 -1.816406 23.890625 -1.023438 24.046875 -0.203125 L 24.0625 0 Z M 12.046875 -0.75 C 13.128906 -0.738281 14.175781 -0.859375 15.1875 -1.109375 C 16.207031 -1.359375 17.15625 -1.734375 18.03125 -2.234375 C 18.90625 -2.742188 19.691406 -3.367188 20.390625 -4.109375 C 21.097656 -4.859375 21.679688 -5.722656 22.140625 -6.703125 L 22.140625 -12.5625 L 16.109375 -12.5625 C 15.328125 -12.539062 14.519531 -12.492188 13.6875 -12.421875 C 12.851562 -12.347656 12.039062 -12.21875 11.25 -12.03125 C 10.457031 -11.84375 9.707031 -11.597656 9 -11.296875 C 8.289062 -10.992188 7.671875 -10.601562 7.140625 -10.125 C 6.617188 -9.65625 6.203125 -9.097656 5.890625 -8.453125 C 5.578125 -7.804688 5.425781 -7.046875 5.4375 -6.171875 C 5.4375 -5.304688 5.632812 -4.535156 6.03125 -3.859375 C 6.4375 -3.179688 6.953125 -2.613281 7.578125 -2.15625 C 8.210938 -1.695312 8.921875 -1.347656 9.703125 -1.109375 C 10.492188 -0.867188 11.273438 -0.75 12.046875 -0.75 Z M 12.046875 -0.75 "/></g></g></g><g fill="#ffffff" fill-opacity="1"><g transform="translate(146.640624, 231.069454)"><g><path d="M 13.109375 -31.421875 L 13.078125 -24.75 L 22 -24.75 L 22 -23.484375 L 13.078125 -23.484375 L 13.078125 -5.921875 C 13.109375 -4.960938 13.28125 -4.15625 13.59375 -3.5 C 13.90625 -2.851562 14.335938 -2.328125 14.890625 -1.921875 C 15.441406 -1.523438 16.085938 -1.234375 16.828125 -1.046875 C 17.566406 -0.867188 18.378906 -0.78125 19.265625 -0.78125 C 20.492188 -0.78125 21.703125 -0.847656 22.890625 -0.984375 L 23.140625 0.1875 C 22.515625 0.300781 21.890625 0.375 21.265625 0.40625 C 20.640625 0.4375 20.007812 0.453125 19.375 0.453125 C 18.269531 0.453125 17.257812 0.34375 16.34375 0.125 C 15.4375 -0.09375 14.644531 -0.453125 13.96875 -0.953125 C 13.300781 -1.460938 12.773438 -2.117188 12.390625 -2.921875 C 12.015625 -3.734375 11.8125 -4.734375 11.78125 -5.921875 L 11.78125 -23.484375 L 4.5 -23.484375 L 4.5 -24.75 L 11.78125 -24.75 L 11.78125 -31.421875 Z M 13.109375 -31.421875 "/></g></g></g><g fill="#ffffff" fill-opacity="1"><g transform="translate(174.754242, 231.069454)"><g><path d="M 13.109375 -31.421875 L 13.078125 -24.75 L 22 -24.75 L 22 -23.484375 L 13.078125 -23.484375 L 13.078125 -5.921875 C 13.109375 -4.960938 13.28125 -4.15625 13.59375 -3.5 C 13.90625 -2.851562 14.335938 -2.328125 14.890625 -1.921875 C 15.441406 -1.523438 16.085938 -1.234375 16.828125 -1.046875 C 17.566406 -0.867188 18.378906 -0.78125 19.265625 -0.78125 C 20.492188 -0.78125 21.703125 -0.847656 22.890625 -0.984375 L 23.140625 0.1875 C 22.515625 0.300781 21.890625 0.375 21.265625 0.40625 C 20.640625 0.4375 20.007812 0.453125 19.375 0.453125 C 18.269531 0.453125 17.257812 0.34375 16.34375 0.125 C 15.4375 -0.09375 14.644531 -0.453125 13.96875 -0.953125 C 13.300781 -1.460938 12.773438 -2.117188 12.390625 -2.921875 C 12.015625 -3.734375 11.8125 -4.734375 11.78125 -5.921875 L 11.78125 -23.484375 L 4.5 -23.484375 L 4.5 -24.75 L 11.78125 -24.75 L 11.78125 -31.421875 Z M 13.109375 -31.421875 "/></g></g></g><g fill="#ffffff" fill-opacity="1"><g transform="translate(202.86786, 231.069454)"><g><path d="M 22.625 0 C 22.4375 -0.78125 22.3125 -1.550781 22.25 -2.3125 C 22.1875 -3.070312 22.148438 -3.84375 22.140625 -4.625 C 21.609375 -3.78125 20.972656 -3.035156 20.234375 -2.390625 C 19.492188 -1.753906 18.6875 -1.226562 17.8125 -0.8125 C 16.945312 -0.394531 16.023438 -0.0820312 15.046875 0.125 C 14.078125 0.34375 13.078125 0.453125 12.046875 0.453125 C 11.054688 0.453125 10.085938 0.300781 9.140625 0 C 8.203125 -0.289062 7.363281 -0.71875 6.625 -1.28125 C 5.894531 -1.84375 5.304688 -2.539062 4.859375 -3.375 C 4.421875 -4.21875 4.203125 -5.179688 4.203125 -6.265625 C 4.203125 -7.742188 4.5625 -8.96875 5.28125 -9.9375 C 6 -10.90625 6.925781 -11.675781 8.0625 -12.25 C 9.195312 -12.820312 10.460938 -13.222656 11.859375 -13.453125 C 13.265625 -13.679688 14.65625 -13.800781 16.03125 -13.8125 L 22.140625 -13.8125 L 22.140625 -17.421875 C 22.109375 -18.535156 21.878906 -19.503906 21.453125 -20.328125 C 21.023438 -21.148438 20.457031 -21.828125 19.75 -22.359375 C 19.039062 -22.898438 18.21875 -23.300781 17.28125 -23.5625 C 16.34375 -23.832031 15.351562 -23.96875 14.3125 -23.96875 C 13.40625 -23.96875 12.472656 -23.84375 11.515625 -23.59375 C 10.566406 -23.351562 9.703125 -22.984375 8.921875 -22.484375 C 8.140625 -21.992188 7.488281 -21.367188 6.96875 -20.609375 C 6.457031 -19.859375 6.175781 -18.96875 6.125 -17.9375 L 4.890625 -17.984375 C 4.953125 -19.179688 5.273438 -20.226562 5.859375 -21.125 C 6.453125 -22.03125 7.191406 -22.785156 8.078125 -23.390625 C 8.972656 -23.992188 9.960938 -24.445312 11.046875 -24.75 C 12.140625 -25.050781 13.226562 -25.203125 14.3125 -25.203125 C 15.53125 -25.203125 16.6875 -25.035156 17.78125 -24.703125 C 18.875 -24.378906 19.832031 -23.894531 20.65625 -23.25 C 21.476562 -22.601562 22.128906 -21.785156 22.609375 -20.796875 C 23.085938 -19.816406 23.34375 -18.679688 23.375 -17.390625 L 23.375 -4.984375 C 23.394531 -4.148438 23.472656 -3.347656 23.609375 -2.578125 C 23.742188 -1.816406 23.890625 -1.023438 24.046875 -0.203125 L 24.0625 0 Z M 12.046875 -0.75 C 13.128906 -0.738281 14.175781 -0.859375 15.1875 -1.109375 C 16.207031 -1.359375 17.15625 -1.734375 18.03125 -2.234375 C 18.90625 -2.742188 19.691406 -3.367188 20.390625 -4.109375 C 21.097656 -4.859375 21.679688 -5.722656 22.140625 -6.703125 L 22.140625 -12.5625 L 16.109375 -12.5625 C 15.328125 -12.539062 14.519531 -12.492188 13.6875 -12.421875 C 12.851562 -12.347656 12.039062 -12.21875 11.25 -12.03125 C 10.457031 -11.84375 9.707031 -11.597656 9 -11.296875 C 8.289062 -10.992188 7.671875 -10.601562 7.140625 -10.125 C 6.617188 -9.65625 6.203125 -9.097656 5.890625 -8.453125 C 5.578125 -7.804688 5.425781 -7.046875 5.4375 -6.171875 C 5.4375 -5.304688 5.632812 -4.535156 6.03125 -3.859375 C 6.4375 -3.179688 6.953125 -2.613281 7.578125 -2.15625 C 8.210938 -1.695312 8.921875 -1.347656 9.703125 -1.109375 C 10.492188 -0.867188 11.273438 -0.75 12.046875 -0.75 Z M 12.046875 -0.75 "/></g></g></g><g fill="#ffffff" fill-opacity="1"><g transform="translate(230.981478, 231.069454)"><g><path d="M 21.390625 -25.203125 C 21.929688 -25.203125 22.476562 -25.164062 23.03125 -25.09375 C 23.582031 -25.03125 24.109375 -24.945312 24.609375 -24.84375 L 24.46875 -23.671875 C 24.03125 -23.742188 23.539062 -23.816406 23 -23.890625 C 22.457031 -23.960938 21.921875 -24 21.390625 -24 C 20.117188 -24 18.882812 -23.851562 17.6875 -23.5625 C 16.488281 -23.28125 15.398438 -22.816406 14.421875 -22.171875 C 13.441406 -21.523438 12.585938 -20.675781 11.859375 -19.625 C 11.128906 -18.582031 10.597656 -17.3125 10.265625 -15.8125 L 10.34375 0 L 8.921875 0 L 8.921875 -24.75 L 10.125 -24.75 L 10.265625 -20.453125 L 10.265625 -18.875 C 11.179688 -20.894531 12.59375 -22.457031 14.5 -23.5625 C 16.40625 -24.675781 18.703125 -25.222656 21.390625 -25.203125 Z M 21.390625 -25.203125 "/></g></g></g><g fill="#ffffff" fill-opacity="1"><g transform="translate(259.095096, 231.069454)"><g><path d="M 22.625 0 C 22.4375 -0.78125 22.3125 -1.550781 22.25 -2.3125 C 22.1875 -3.070312 22.148438 -3.84375 22.140625 -4.625 C 21.609375 -3.78125 20.972656 -3.035156 20.234375 -2.390625 C 19.492188 -1.753906 18.6875 -1.226562 17.8125 -0.8125 C 16.945312 -0.394531 16.023438 -0.0820312 15.046875 0.125 C 14.078125 0.34375 13.078125 0.453125 12.046875 0.453125 C 11.054688 0.453125 10.085938 0.300781 9.140625 0 C 8.203125 -0.289062 7.363281 -0.71875 6.625 -1.28125 C 5.894531 -1.84375 5.304688 -2.539062 4.859375 -3.375 C 4.421875 -4.21875 4.203125 -5.179688 4.203125 -6.265625 C 4.203125 -7.742188 4.5625 -8.96875 5.28125 -9.9375 C 6 -10.90625 6.925781 -11.675781 8.0625 -12.25 C 9.195312 -12.820312 10.460938 -13.222656 11.859375 -13.453125 C 13.265625 -13.679688 14.65625 -13.800781 16.03125 -13.8125 L 22.140625 -13.8125 L 22.140625 -17.421875 C 22.109375 -18.535156 21.878906 -19.503906 21.453125 -20.328125 C 21.023438 -21.148438 20.457031 -21.828125 19.75 -22.359375 C 19.039062 -22.898438 18.21875 -23.300781 17.28125 -23.5625 C 16.34375 -23.832031 15.351562 -23.96875 14.3125 -23.96875 C 13.40625 -23.96875 12.472656 -23.84375 11.515625 -23.59375 C 10.566406 -23.351562 9.703125 -22.984375 8.921875 -22.484375 C 8.140625 -21.992188 7.488281 -21.367188 6.96875 -20.609375 C 6.457031 -19.859375 6.175781 -18.96875 6.125 -17.9375 L 4.890625 -17.984375 C 4.953125 -19.179688 5.273438 -20.226562 5.859375 -21.125 C 6.453125 -22.03125 7.191406 -22.785156 8.078125 -23.390625 C 8.972656 -23.992188 9.960938 -24.445312 11.046875 -24.75 C 12.140625 -25.050781 13.226562 -25.203125 14.3125 -25.203125 C 15.53125 -25.203125 16.6875 -25.035156 17.78125 -24.703125 C 18.875 -24.378906 19.832031 -23.894531 20.65625 -23.25 C 21.476562 -22.601562 22.128906 -21.785156 22.609375 -20.796875 C 23.085938 -19.816406 23.34375 -18.679688 23.375 -17.390625 L 23.375 -4.984375 C 23.394531 -4.148438 23.472656 -3.347656 23.609375 -2.578125 C 23.742188 -1.816406 23.890625 -1.023438 24.046875 -0.203125 L 24.0625 0 Z M 12.046875 -0.75 C 13.128906 -0.738281 14.175781 -0.859375 15.1875 -1.109375 C 16.207031 -1.359375 17.15625 -1.734375 18.03125 -2.234375 C 18.90625 -2.742188 19.691406 -3.367188 20.390625 -4.109375 C 21.097656 -4.859375 21.679688 -5.722656 22.140625 -6.703125 L 22.140625 -12.5625 L 16.109375 -12.5625 C 15.328125 -12.539062 14.519531 -12.492188 13.6875 -12.421875 C 12.851562 -12.347656 12.039062 -12.21875 11.25 -12.03125 C 10.457031 -11.84375 9.707031 -11.597656 9 -11.296875 C 8.289062 -10.992188 7.671875 -10.601562 7.140625 -10.125 C 6.617188 -9.65625 6.203125 -9.097656 5.890625 -8.453125 C 5.578125 -7.804688 5.425781 -7.046875 5.4375 -6.171875 C 5.4375 -5.304688 5.632812 -4.535156 6.03125 -3.859375 C 6.4375 -3.179688 6.953125 -2.613281 7.578125 -2.15625 C 8.210938 -1.695312 8.921875 -1.347656 9.703125 -1.109375 C 10.492188 -0.867188 11.273438 -0.75 12.046875 -0.75 Z M 12.046875 -0.75 "/></g></g></g><g fill="#ffffff" fill-opacity="1"><g transform="translate(287.208703, 231.069454)"><g><path d="M 5.46875 -24.75 L 15.78125 -24.75 L 15.78125 -1.234375 L 24.5625 -1.234375 L 24.5625 0 L 5.46875 0 L 5.46875 -1.234375 L 14.546875 -1.234375 L 14.546875 -23.515625 L 5.46875 -23.515625 Z M 13.5 -31.796875 C 13.5 -32.003906 13.519531 -32.210938 13.5625 -32.421875 C 13.601562 -32.628906 13.6875 -32.8125 13.8125 -32.96875 C 13.9375 -33.132812 14.097656 -33.257812 14.296875 -33.34375 C 14.503906 -33.4375 14.769531 -33.484375 15.09375 -33.484375 C 15.394531 -33.484375 15.648438 -33.4375 15.859375 -33.34375 C 16.066406 -33.257812 16.234375 -33.132812 16.359375 -32.96875 C 16.492188 -32.8125 16.585938 -32.628906 16.640625 -32.421875 C 16.691406 -32.210938 16.71875 -32.003906 16.71875 -31.796875 C 16.71875 -31.378906 16.597656 -31.003906 16.359375 -30.671875 C 16.128906 -30.335938 15.707031 -30.171875 15.09375 -30.171875 C 14.46875 -30.171875 14.046875 -30.335938 13.828125 -30.671875 C 13.609375 -31.003906 13.5 -31.378906 13.5 -31.796875 Z M 13.5 -31.796875 "/></g></g></g></svg>